<?xml version="1.0" standalone="no"?>
<!DOCTYPE svg PUBLIC "-//W3C//DTD SVG 20010904//EN"
 "http://www.w3.org/TR/2001/REC-SVG-20010904/DTD/svg10.dtd">
<svg version="1.0" xmlns="http://www.w3.org/2000/svg"
 width="512.000000pt" height="512.000000pt" viewBox="0 0 512.000000 512.000000"
 preserveAspectRatio="xMidYMid meet">
<metadata>
Created by potrace 1.11, written by Peter Selinger 2001-2013
</metadata>
<g transform="translate(0.000000,512.000000) scale(0.100000,-0.100000)"
fill="#000000" stroke="none">
<path d="M1657 4344 c-1 -1 -36 -5 -77 -8 -237 -21 -526 -118 -740 -249 -447
-274 -759 -750 -835 -1275 l-6 -43 528 2 c539 1 600 4 775 44 222 49 482 170
673 314 147 110 380 339 372 366 -9 30 -268 133 -372 149 -38 6 -43 4 -102
-53 -49 -48 -145 -126 -219 -179 -45 -32 -220 -116 -293 -141 -83 -28 -209
-58 -286 -67 -64 -8 -485 -13 -498 -7 -4 3 2 17 13 33 11 15 20 31 20 34 0 3
16 30 36 59 224 322 559 531 944 586 85 13 361 7 425 -8 28 -7 70 -17 95 -23
160 -38 379 -145 506 -249 39 -32 176 -170 301 -304 235 -252 536 -427 868
-505 81 -20 97 -23 215 -39 100 -14 1120 -14 1120 0 0 6 -11 66 -25 133 -137
677 -644 1207 -1320 1380 -182 47 -452 64 -635 42 -83 -10 -260 -48 -260 -55
1 -3 21 -19 45 -34 72 -46 201 -154 292 -244 l84 -83 77 -2 c106 -2 108 -2
237 -24 58 -9 175 -45 247 -75 68 -28 208 -100 232 -120 6 -5 40 -30 75 -56
77 -56 193 -171 254 -251 37 -48 127 -186 127 -195 0 -6 -449 0 -505 7 -33 4
-98 16 -145 28 -271 65 -518 214 -719 433 -147 160 -258 262 -379 349 -251
179 -534 290 -822 322 -59 6 -317 13 -323 8z"/>
<path d="M5 2310 c3 -19 8 -49 10 -67 8 -62 56 -235 89 -321 271 -702 932
-1157 1675 -1153 155 1 300 18 421 51 l45 12 -25 17 c-109 72 -235 176 -336
280 l-62 64 -99 2 c-236 6 -483 84 -695 221 -76 49 -104 72 -203 166 -97 92
-171 188 -240 311 l-16 28 263 -5 c184 -4 284 -10 333 -21 39 -8 80 -18 92
-20 136 -31 390 -162 523 -272 41 -33 175 -167 245 -244 99 -109 282 -261 405
-337 62 -38 253 -129 325 -155 91 -32 263 -73 345 -83 36 -4 76 -9 90 -11 37
-5 301 -4 330 2 14 2 45 7 70 9 156 17 367 80 530 158 363 175 641 449 825
816 82 163 157 407 167 542 l3 44 -525 0 c-356 -1 -549 -5 -600 -13 -41 -7
-93 -15 -115 -18 -22 -3 -89 -20 -150 -38 -355 -107 -636 -292 -917 -603 -21
-22 -38 -45 -38 -50 0 -14 125 -76 220 -110 72 -25 140 -42 185 -47 6 0 48 35
96 80 150 141 305 235 499 300 55 19 111 37 123 39 12 2 40 7 62 11 22 4 49
10 60 12 11 3 134 7 273 9 210 4 252 3 252 -9 0 -28 -127 -204 -210 -290 -112
-118 -229 -204 -375 -277 -216 -107 -369 -144 -605 -144 -166 0 -250 12 -409
60 -245 74 -492 245 -673 464 -183 223 -474 425 -745 518 -151 52 -233 72
-353 88 -14 1 -47 6 -75 10 -27 3 -285 7 -573 8 l-523 1 6 -35z"/>
</g>
</svg>
