<svg width="57" height="57" viewBox="0 0 57 57" fill="none" xmlns="http://www.w3.org/2000/svg">
<path d="M17.1456 39.2355L17.1133 39.2032C16.6827 38.7748 15.9863 38.7763 15.5576 39.207C15.1291 39.6376 15.1307 40.334 15.5614 40.7626L15.5974 40.7983C15.8119 41.0109 16.0917 41.1169 16.3714 41.1169C16.6547 41.1169 16.9379 41.0081 17.153 40.7911C17.5805 40.3594 17.5772 39.663 17.1456 39.2355Z" fill="#003399"/>
<path d="M40.7608 15.5594C33.8128 8.61138 22.5074 8.61138 15.5594 15.5594C9.8715 21.2473 8.69923 30.0827 12.7085 37.0455C13.0117 37.572 13.6843 37.7529 14.2107 37.4499C14.7371 37.1467 14.9182 36.4742 14.615 35.9477C11.1011 29.8452 12.1291 22.101 17.115 17.115C23.2053 11.0248 33.1149 11.0248 39.2051 17.115C45.2953 23.2053 45.2953 33.1149 39.2051 39.2051C34.1889 44.2214 26.4123 45.2306 20.294 41.6596C19.7692 41.3532 19.0957 41.5303 18.7894 42.0551C18.4832 42.5798 18.6603 43.2535 19.185 43.5597C21.9767 45.1891 25.0703 45.9827 28.1446 45.9827C32.7578 45.9827 37.3267 44.1948 40.7608 40.7607C47.7088 33.8127 47.7088 22.5075 40.7608 15.5594Z" fill="#003399"/>
<path fill-rule="evenodd" clip-rule="evenodd" d="M55.3883 22.2408C55.9225 22.3254 56.3159 22.7859 56.3162 23.3268L56.32 32.9718C56.3202 33.5127 55.9271 33.9735 55.3929 34.0585L51.3346 34.7047L49.1835 39.9033L51.5988 43.228C51.9167 43.6656 51.8693 44.2694 51.4869 44.6521L44.6692 51.4744C44.287 51.857 43.6832 51.9049 43.2454 51.5872L39.9175 49.1735L34.7225 51.3276L34.0791 55.3881C33.9944 55.9222 33.5339 56.3157 32.9931 56.3159L23.348 56.32H23.3476C22.8069 56.32 22.3464 55.927 22.2614 55.3929L21.6152 51.3346L16.4166 49.1835L13.0919 51.5988C12.6544 51.9168 12.0505 51.8693 11.6678 51.4869L4.8455 44.6692C4.46292 44.287 4.41507 43.6832 4.73264 43.2454L7.14637 39.9175L4.99224 34.7225L0.93181 34.0791C0.39765 33.9945 0.00418009 33.5339 0.00396009 32.9931L0 23.348C-0.000219908 22.8072 0.39292 22.3464 0.92708 22.2614L4.98542 21.6152L7.13647 16.4166L4.7212 13.0919C4.4033 12.6543 4.45071 12.0505 4.83307 11.6678L11.6508 4.8455C12.0331 4.46292 12.6369 4.41507 13.0746 4.73264L16.4025 7.14637L21.5975 4.99224L22.2408 0.93181C22.3255 0.39765 22.7859 0.00418 23.3268 0.00396L32.972 0H32.9724C33.5131 0 33.9736 0.39303 34.0588 0.92697L34.7049 4.98531L39.9035 7.13636L43.2282 4.72109C43.6658 4.40308 44.2696 4.4506 44.6523 4.83296L51.4746 11.6507C51.8572 12.0329 51.905 12.6367 51.5875 13.0745L49.1737 16.4024L51.3279 21.5974L55.3883 22.2408ZM49.5373 33.2946C49.6836 32.941 50.0029 32.689 50.3808 32.6289L54.1198 32.0335L54.1166 24.2668L50.3755 23.674C49.9976 23.6141 49.6781 23.3622 49.5316 23.0089L46.9058 16.6764C46.7592 16.323 46.8068 15.9189 47.0314 15.6092L49.2552 12.543L43.7614 7.05287L40.6983 9.27806C40.3888 9.5029 39.9847 9.55064 39.6312 9.40456L33.2948 6.78271C32.9413 6.63641 32.6893 6.31708 32.6291 5.93923L32.0338 2.20033L24.2669 2.20352L23.6742 5.94462C23.6144 6.32236 23.3625 6.64202 23.0091 6.78854L16.6767 9.41446C16.3232 9.56109 15.9192 9.51335 15.6094 9.28873L12.5432 7.06486L7.05309 12.5587L9.27828 15.6218C9.50312 15.9313 9.55108 16.3354 9.40478 16.6889L6.78293 23.0253C6.63663 23.3788 6.3173 23.6309 5.93945 23.691L2.20055 24.2864L2.20374 32.0531L5.94484 32.6459C6.32269 32.7057 6.64224 32.9576 6.78876 33.311L9.41457 39.6434C9.56109 39.9969 9.51357 40.401 9.28895 40.7107L7.06508 43.7769L12.5589 49.267L15.622 47.0418C15.8128 46.9031 16.0398 46.8317 16.2686 46.8317C16.4107 46.8317 16.5536 46.8592 16.689 46.9153L23.0254 49.5372C23.379 49.6835 23.631 50.0028 23.6911 50.3807L24.2865 54.1196L32.0532 54.1163L32.646 50.3753C32.7059 49.9974 32.9578 49.6779 33.3111 49.5313L39.6436 46.9054C39.9971 46.7591 40.4012 46.8065 40.7108 47.0312L43.777 49.255L49.2671 43.7612L47.0419 40.6981C46.8171 40.3886 46.7691 39.9845 46.9154 39.631L49.5373 33.2946Z" fill="#003399"/>
<path fill-rule="evenodd" clip-rule="evenodd" d="M33.1315 28.0216C34.9566 27.7375 36.8055 28.2804 38.1812 29.5303C40.0678 31.2444 40.6981 33.984 39.7497 36.3477C39.6121 36.6907 39.3116 36.9416 38.9495 37.0157C38.5874 37.09 38.2122 36.9771 37.951 36.7159L36.3665 35.1313C36.0288 34.7936 35.4794 34.7936 35.1418 35.1313C34.8042 35.469 34.8042 36.0184 35.1418 36.3559L36.7296 37.9438C36.9906 38.2048 37.1032 38.5793 37.0296 38.9409C36.9561 39.3026 36.7059 39.6034 36.3637 39.7415C35.6179 40.0428 34.838 40.1893 34.0657 40.1893C32.4733 40.1894 30.912 39.5671 29.7402 38.3952C28.3554 37.0103 27.7246 35.0392 28.0203 33.1241L23.1938 28.2976C21.3667 28.5836 19.5164 28.0408 18.1392 26.7894C16.2462 25.0695 15.6187 22.3227 16.5778 19.9542C16.7162 19.6122 17.0169 19.3624 17.3785 19.289C17.7403 19.2154 18.1143 19.3283 18.3752 19.5892L19.9757 21.1898C20.3134 21.5275 20.8627 21.5275 21.2003 21.1898C21.5379 20.8521 21.5379 20.3028 21.2003 19.9652L19.6053 18.3702C19.3438 18.1087 19.2312 17.7334 19.3056 17.3713C19.3798 17.0091 19.6311 16.7085 19.9744 16.5711C22.2529 15.6591 24.8458 16.1903 26.5801 17.9246C27.9633 19.3079 28.5944 21.2771 28.3006 23.1907L33.1315 28.0216ZM33.586 33.5758C34.7814 32.3803 36.7265 32.3804 37.922 33.5758L37.9602 33.6141C37.8513 32.6896 37.4175 31.8091 36.7017 31.1588C35.7192 30.2662 34.3555 29.9387 33.0541 30.2825C32.6753 30.3826 32.2723 30.2737 31.9953 29.9968L26.3257 24.3272C26.0482 24.0498 25.9396 23.6457 26.0404 23.2666C26.3994 21.9169 26.0101 20.4661 25.0244 19.4804C24.3855 18.8413 23.5641 18.4573 22.7039 18.3576L22.7559 18.4097C23.9513 19.605 23.9513 21.5501 22.7559 22.7455C21.5605 23.941 19.6154 23.9409 18.42 22.7455L18.3567 22.6823C18.4609 23.6151 18.8959 24.5048 19.6183 25.1614C20.6018 26.055 21.9667 26.3826 23.2694 26.0366C23.3626 26.0119 23.4574 25.9999 23.5513 25.9999C23.8393 25.9999 24.1203 26.1131 24.3293 26.3221L29.9956 31.9884C30.2732 32.266 30.3818 32.6705 30.2805 33.0499C29.9198 34.4007 30.3089 35.8528 31.2957 36.8396C31.941 37.485 32.7711 37.8702 33.6397 37.9655L33.586 37.9117C32.3906 36.7163 32.3906 34.7713 33.586 33.5758Z" fill="#003399"/>
<path d="M38.2077 20.3048C36.3948 17.9889 33.8248 16.3599 30.9708 15.7178C30.3784 15.5843 29.7895 15.9567 29.6562 16.5495C29.5229 17.1423 29.8951 17.7308 30.4879 17.8641C32.8482 18.3952 34.9746 19.7435 36.4754 21.661C36.6925 21.9382 37.0158 22.0829 37.3424 22.0829C37.5795 22.0829 37.8184 22.0066 38.0196 21.8491C38.498 21.4746 38.5823 20.7832 38.2077 20.3048Z" fill="#003399"/>
<path d="M40.3093 24.2714L40.2932 24.2216C40.1066 23.6435 39.4867 23.3265 38.9084 23.5129C38.3303 23.6996 38.0129 24.3195 38.1997 24.8977L38.2137 24.9408C38.363 25.4082 38.7956 25.7064 39.2612 25.7064C39.3721 25.7064 39.485 25.6895 39.5962 25.654C40.1749 25.469 40.4942 24.8501 40.3093 24.2714Z" fill="#003399"/>
</svg>
