<svg width="64" height="44" viewBox="0 0 64 44" fill="none" xmlns="http://www.w3.org/2000/svg">
<path fill-rule="evenodd" clip-rule="evenodd" d="M54.054 6.29853L63.362 14.0075C63.661 14.2545 63.83 14.6315 63.843 15.0215L63.739 34.7295C63.739 35.4445 63.154 36.0165 62.439 36.0165H59.8C59.085 36.0165 58.5 35.4315 58.5 34.7165C58.5 34.0015 59.085 33.4165 59.8 33.4165H61.152L61.243 15.6195L52.767 8.59953H42.289V33.4425H44.902C45.617 33.4425 46.202 34.0275 46.202 34.7425C46.202 35.4575 45.617 36.0425 44.902 36.0425H29.029C28.314 36.0425 27.729 35.4575 27.729 34.7425C27.729 34.0275 28.314 33.4425 29.029 33.4425H39.689V2.61953H9.165V10.8355C9.165 11.5505 8.58 12.1355 7.865 12.1355C7.15 12.1355 6.565 11.5505 6.565 10.8355V1.31953C6.565 0.604531 7.15 0.0195312 7.865 0.0195312H40.976C41.691 0.0195312 42.276 0.604531 42.276 1.31953V5.99953H53.222C53.534 5.99953 53.82 6.10353 54.054 6.29853ZM52.832 12.0185C53.157 12.0185 53.469 12.1355 53.703 12.3565L57.616 15.8795C57.889 16.1265 58.045 16.4775 58.045 16.8415V23.9785C58.045 24.6935 57.46 25.2785 56.745 25.2785H46.163C45.448 25.2785 44.863 24.6935 44.863 23.9785V13.3185C44.863 12.6035 45.448 12.0185 46.163 12.0185H52.832ZM52.195 31.8435C50.635 31.8435 49.153 32.4545 48.035 33.5595C46.917 34.6775 46.293 36.1335 46.293 37.6935C46.293 39.2535 46.904 40.7095 48.035 41.8275C49.166 42.9325 50.635 43.5435 52.195 43.5435C55.393 43.5435 57.993 40.9175 57.993 37.6935C57.993 34.4695 55.393 31.8435 52.195 31.8435ZM52.195 40.9435C50.401 40.9435 48.893 39.4615 48.893 37.6935C48.893 35.9255 50.401 34.4435 52.195 34.4435C53.963 34.4435 55.393 35.8995 55.393 37.6935C55.393 39.4875 53.963 40.9435 52.195 40.9435ZM55.445 22.6785H47.463V14.6055H52.325L55.445 17.4135V22.6785ZM16.289 33.5595C17.407 32.4545 18.889 31.8435 20.449 31.8435C23.647 31.8435 26.247 34.4695 26.247 37.6935C26.247 40.9175 23.647 43.5435 20.449 43.5435C18.889 43.5435 17.42 42.9325 16.289 41.8275C15.158 40.7095 14.547 39.2535 14.547 37.6935C14.547 36.1335 15.171 34.6775 16.289 33.5595ZM20.449 40.9435C18.655 40.9435 17.147 39.4615 17.147 37.6935C17.147 35.9255 18.655 34.4435 20.449 34.4435C22.217 34.4435 23.647 35.8995 23.647 37.6935C23.647 39.4875 22.217 40.9435 20.449 40.9435ZM9.165 33.4425H11.778C12.493 33.4425 13.078 34.0275 13.078 34.7425C13.078 35.4575 12.493 36.0425 11.778 36.0425H7.865C7.15 36.0425 6.565 35.4575 6.565 34.7425V29.9845C6.565 29.2695 7.15 28.6845 7.865 28.6845C8.58 28.6845 9.165 29.2695 9.165 29.9845V33.4425ZM18.369 26.3575C18.369 25.6425 17.784 25.0575 17.069 25.0575H1.3C0.585 25.0575 0 25.6425 0 26.3575C0 27.0725 0.585 27.6575 1.3 27.6575H17.069C17.784 27.6575 18.369 27.0855 18.369 26.3575ZM19.708 21.7555L3.939 21.6645C3.224 21.6645 2.639 21.0795 2.652 20.3515C2.652 19.6365 3.237 19.0645 3.952 19.0645H3.965L19.734 19.1555C20.449 19.1555 21.034 19.7405 21.021 20.4685C21.008 21.1835 20.423 21.7555 19.708 21.7555ZM6.591 15.7625H22.36C23.075 15.7625 23.66 15.1775 23.66 14.4625C23.66 13.7475 23.075 13.1625 22.36 13.1625H6.591C5.876 13.1625 5.291 13.7475 5.291 14.4625C5.291 15.1775 5.876 15.7625 6.591 15.7625Z" fill="#0037A2"/>
</svg>
