<svg width="62" height="62" viewBox="0 0 62 62" fill="none" xmlns="http://www.w3.org/2000/svg">
<path fill-rule="evenodd" clip-rule="evenodd" d="M49.7117 53.352L47.4245 46.4894C46.6252 44.0935 44.586 42.3249 42.1002 41.8724L35.4974 40.671V40.1592C36.6464 39.4923 37.6463 38.6002 38.4426 37.544H40.4374C42.0715 37.544 43.4014 36.2142 43.4014 34.58V22.724C43.4014 15.642 37.6393 9.88 30.5574 9.88C23.4754 9.88 17.7134 15.642 17.7134 22.724V29.64C17.7134 31.5449 19.0679 33.1385 20.8641 33.51C21.4184 36.3495 23.1928 38.7523 25.6174 40.1592V40.671L19.0136 41.8724C16.5287 42.3249 14.4885 44.0935 13.6902 46.4894L13.295 47.6759L9.92989 44.3108C9.54457 43.9255 9.54457 43.2981 9.92989 42.9128L13.8325 39.0112L6.50746 31.6862L2.09702 36.0966C0.790889 37.4027 0.0716248 39.1396 0.0716248 40.9872C0.0716248 42.8347 0.790889 44.5707 2.09702 45.8768L15.4498 59.2296C16.756 60.5358 18.4929 61.256 20.3404 61.256C22.188 61.256 23.9239 60.5358 25.1994 59.2593L30.012 54.8498L28.5112 53.352H49.7117ZM41.4254 34.58C41.4254 35.1254 40.9817 35.568 40.4374 35.568H39.6064C39.893 34.9149 40.1103 34.2263 40.2506 33.51C40.6735 33.4221 41.0628 33.2541 41.4254 33.0427V34.58ZM40.4374 27.9387V31.3413C41.0252 30.9985 41.4254 30.3682 41.4254 29.64C41.4254 28.9118 41.0252 28.2815 40.4374 27.9387ZM20.6774 31.3413C20.0895 30.9985 19.6894 30.3682 19.6894 29.64C19.6894 28.9118 20.0895 28.2815 20.6774 27.9387V31.3413ZM20.6774 25.8283V24.7H21.6654C24.5869 24.7 27.3335 23.5618 29.4004 21.4959L30.5574 20.339L31.7143 21.4959C33.7812 23.5618 36.5278 24.7 39.4494 24.7H40.4374V25.8283C40.7891 25.9192 41.1191 26.0585 41.4254 26.2373V22.724C41.4254 16.7318 36.5496 11.856 30.5574 11.856C24.5651 11.856 19.6894 16.7318 19.6894 22.724V26.2373C19.9956 26.0585 20.3256 25.9202 20.6774 25.8283ZM22.6534 31.616V26.6385C25.6203 26.4152 28.3867 25.191 30.5574 23.1271C32.728 25.191 35.4944 26.4162 38.4614 26.6385V31.616C38.4614 33.0565 38.0681 34.4041 37.3923 35.568H30.5574V37.544H35.7681C34.375 38.7701 32.5541 39.52 30.5574 39.52C26.1993 39.52 22.6534 35.9741 22.6534 31.616ZM33.5214 41.087V41.0405C32.5847 41.335 31.5898 41.496 30.5574 41.496C29.5249 41.496 28.53 41.335 27.5934 41.0405V41.087L30.5574 44.051L33.5214 41.087ZM15.5635 47.1138C16.1335 45.4026 17.5908 44.1389 19.3663 43.8148L26.2724 42.5601L30.5574 46.845L34.8413 42.5611L41.7465 43.8158C43.5219 44.1399 44.9792 45.4026 45.5493 47.1148L46.971 51.376H26.5352L22.6869 47.5277L18.4109 51.3958C18.0384 51.7702 17.3873 51.7702 17.0138 51.3958L14.8561 49.238L15.5635 47.1138ZM11.0374 39.0112L6.50647 34.4802L5.4335 35.5532L9.96447 40.0842L11.0374 39.0112ZM23.831 57.8346C22.8984 58.7653 21.6574 59.28 20.3385 59.28C19.0195 59.28 17.7786 58.7653 16.8449 57.8326L3.49208 44.4808C2.55941 43.5481 2.04565 42.3072 2.04565 40.9882C2.04565 39.6682 2.55941 38.4273 3.49208 37.4946L4.03548 36.9512L8.56645 41.4822L8.53088 41.5177C7.37591 42.6737 7.37591 44.5539 8.53088 45.7098L15.6158 52.7948C16.176 53.354 16.92 53.6632 17.7124 53.6632C18.5047 53.6632 19.2487 53.355 19.7723 52.8294L19.8464 52.7632L24.3982 57.3149L23.831 57.8346ZM21.3146 51.4353L25.8564 55.9771L27.1537 54.7895L22.6198 50.2556L21.3146 51.4353Z" fill="#0039A6"/>
<path fill-rule="evenodd" clip-rule="evenodd" d="M44.3894 0H58.2214C59.8555 0 61.1854 1.32985 61.1854 2.964V10.868C61.1854 12.5022 59.8555 13.832 58.2214 13.832H55.5409L46.0067 19.7906L47.0283 13.832H44.3894C42.7552 13.832 41.4254 12.5022 41.4254 10.868V2.964C41.4254 1.32985 42.7552 0 44.3894 0ZM58.2214 11.856C58.7657 11.856 59.2094 11.4124 59.2094 10.868V2.964C59.2094 2.41961 58.7657 1.976 58.2214 1.976H44.3894C43.845 1.976 43.4014 2.41961 43.4014 2.964V10.868C43.4014 11.4124 43.845 11.856 44.3894 11.856H49.3718L48.699 15.7774L54.9738 11.856H58.2214Z" fill="#0039A6"/>
<rect x="45.3773" y="3.95203" width="11.856" height="1.976" fill="#0039A6"/>
<rect x="45.3773" y="7.90405" width="7.904" height="1.976" fill="#0039A6"/>
<rect x="55.2574" y="7.90405" width="1.976" height="1.976" fill="#0039A6"/>
<path d="M30.5574 2.96399C17.6482 2.96399 6.52822 11.8935 3.63733 24.3492L1.76507 21.2282L0.0706482 22.2448L3.54347 28.0315L9.33018 24.5587L8.31353 22.8643L5.63605 24.4708C8.43604 13.0762 18.6826 4.93999 30.5574 4.93999C33.1528 4.93999 35.7137 5.32531 38.1689 6.08607L38.7538 4.19899C36.1089 3.37895 33.3514 2.96399 30.5574 2.96399Z" fill="#0039A6"/>
<path d="M60.7052 21.8763L54.9185 18.4034L51.4466 24.1911L53.141 25.2078L54.87 22.3258C55.78 24.9885 56.2453 27.7736 56.2453 30.628C56.2453 36.5036 54.2101 42.2478 50.5159 46.8015L52.0503 48.0464C56.03 43.142 58.2213 36.9551 58.2213 30.628C58.2213 27.6057 57.7343 24.6545 56.7848 21.8288L59.6885 23.5707L60.7052 21.8763Z" fill="#0039A6"/>
</svg>
