<svg width="57" height="58" viewBox="0 0 57 58" fill="none" xmlns="http://www.w3.org/2000/svg">
<path fill-rule="evenodd" clip-rule="evenodd" d="M53.1403 0.206684C55.2534 0.220278 56.9611 1.93356 56.9686 4.04668C56.9709 5.06528 56.5655 6.04262 55.8436 6.76075L53.6189 8.9859C54.3403 11.6339 53.5884 14.4656 51.6478 16.4067C49.7072 18.3473 46.8759 19.1001 44.2275 18.3797L42.9103 19.6968C45.6511 23.1351 45.3759 28.0828 42.2709 31.1967L21.9066 51.5601L22.5853 52.2389C23.7103 53.3639 23.7103 55.1878 22.5853 56.3128C21.4603 57.4382 19.6359 57.4382 18.5109 56.3128L0.862501 38.6643C-0.262968 37.5393 -0.262968 35.7154 0.862032 34.5904C1.98656 33.4654 3.81047 33.4654 4.93547 34.59L5.61422 35.2687L25.9809 14.9053C29.0939 11.7993 34.042 11.5242 37.4808 14.2659L38.7975 12.9487C38.5191 11.9554 38.4562 10.9139 38.6133 9.89387L35.4877 6.75981C34.4662 5.80075 34.0481 4.36168 34.3964 3.00465C34.7452 1.64762 35.805 0.588246 37.162 0.240434C38.5191 -0.107847 39.9581 0.311215 40.9163 1.33262L43.4123 3.82215C44.9334 3.21653 46.6106 3.12325 48.1894 3.55731L50.4145 1.33778C51.1331 0.612621 52.1119 0.205278 53.1323 0.206684H53.1403ZM36.2756 4.03965C36.2747 4.55106 36.4795 5.04184 36.8442 5.40043L39.2241 7.78684C39.7697 6.59622 40.6092 5.56403 41.6644 4.78778L39.5578 2.68825C38.8027 1.96168 37.6088 1.95887 36.8498 2.68168C36.4838 3.03887 36.2766 3.52825 36.2756 4.03965ZM21.2269 54.9543C21.0469 55.1348 20.8022 55.2361 20.5477 55.2361C20.2927 55.2361 20.0484 55.1348 19.8684 54.9543L2.22094 37.3068C1.84547 36.9309 1.84641 36.3215 2.22281 35.9465C2.59875 35.5715 3.20766 35.5725 3.58313 35.9484L21.2269 53.5973C21.6014 53.9718 21.6014 54.5798 21.2269 54.9543ZM6.97172 36.6272L20.5481 50.2036L21.9066 48.8461L8.32922 35.2687L6.97172 36.6272ZM40.9125 29.8392L23.2631 47.4886L9.68672 33.9122L27.3361 16.2628C29.9625 13.6429 34.2141 13.6429 36.8405 16.2628L40.9125 20.3348C43.5328 22.9612 43.5328 27.2128 40.9125 29.8392ZM38.8763 15.5831L41.5922 18.299L42.3141 17.5772C41.1942 16.9153 40.26 15.9811 39.5981 14.8612L38.8763 15.5831ZM46.207 16.7282C43.0256 16.7282 40.447 14.1497 40.447 10.9682C40.447 7.78731 43.0256 5.20825 46.207 5.20825C49.388 5.20825 51.967 7.78731 51.967 10.9682C51.9638 14.1482 49.387 16.725 46.207 16.7282ZM52.8145 7.07059L54.4852 5.40043C54.8456 5.04231 55.0486 4.55481 55.0486 4.04668C55.0523 3.53856 54.8498 3.05059 54.487 2.69481C54.1312 2.32872 53.6428 2.12106 53.1323 2.11918C52.6214 2.11918 52.1316 2.32403 51.772 2.68731L50.1019 4.35793C51.2198 5.01981 52.1527 5.95262 52.8145 7.07059Z" fill="#0036A1"/>
<path d="M45.5283 10.2895L47.4478 8.36951L48.8053 9.72701L46.8858 11.647L45.5283 10.2895Z" fill="#0036A1"/>
<path d="M21.5283 34.2895L23.4478 32.37L24.8053 33.7275L22.8858 35.6475L21.5283 34.2895Z" fill="#0036A1"/>
<path d="M16.7283 39.0895L20.5683 35.249L21.9262 36.607L18.0858 40.447L16.7283 39.0895Z" fill="#0036A1"/>
<path d="M26.3278 37.1695L28.2478 35.2495L29.6053 36.6075L27.6858 38.527L26.3278 37.1695Z" fill="#0036A1"/>
<path d="M21.5283 41.969L25.3683 38.129L26.7258 39.4865L22.8858 43.3265L21.5283 41.969Z" fill="#0036A1"/>
<path d="M18.6483 29.4896L20.5678 27.5696L21.9258 28.9275L20.0058 30.8471L18.6483 29.4896Z" fill="#0036A1"/>
<path d="M13.8483 34.2891L17.6887 30.4491L19.0462 31.8066L15.2062 35.6466L13.8483 34.2891Z" fill="#0036A1"/>
<path fill-rule="evenodd" clip-rule="evenodd" d="M23.167 26.3283C23.167 22.0866 26.6053 18.6483 30.847 18.6483C35.0864 18.653 38.5223 22.0889 38.527 26.3283C38.527 30.57 35.0887 34.0083 30.847 34.0083C26.6053 34.0083 23.167 30.57 23.167 26.3283ZM25.087 26.3283C25.087 29.5097 27.6656 32.0883 30.847 32.0883C34.027 32.085 36.6037 29.5083 36.607 26.3283C36.607 23.1474 34.028 20.5683 30.847 20.5683C27.6656 20.5683 25.087 23.1474 25.087 26.3283Z" fill="#0036A1"/>
</svg>
