<svg width="58" height="58" viewBox="0 0 58 58" fill="none" xmlns="http://www.w3.org/2000/svg">
<path d="M6.4917 12.9315C5.79105 12.4897 4.86465 12.6999 4.4229 13.4007C1.0176 18.8034 -0.485399 25.2958 0.191251 31.6824C0.877801 38.1646 3.7992 44.2777 8.41695 48.8956C13.9988 54.4773 21.3306 57.268 28.6626 57.268C35.9946 57.268 43.3265 54.4773 48.9083 48.8956C60.0716 37.7322 60.0716 19.5678 48.9083 8.4045C44.2832 3.77955 38.1602 0.857247 31.6673 0.175947C25.2692 -0.495903 18.7691 1.01955 13.3643 4.44165C12.6644 4.8849 12.4562 5.8116 12.8993 6.5115C13.3425 7.2114 14.2692 7.41945 14.9691 6.9765C24.9981 0.626247 38.3797 2.11905 46.7868 10.5261C56.7804 20.5198 56.7804 36.7807 46.7868 46.7745C41.7894 51.7719 35.2272 54.2704 28.6626 54.2698C22.0997 54.2691 15.5346 51.7708 10.5384 46.7745C2.01345 38.2495 0.542401 25.1836 6.9609 15.0006C7.40265 14.2995 7.19265 13.3732 6.4917 12.9315Z" fill="#0037A2"/>
<path d="M12.6561 21.7535C10.2618 21.7535 8.31404 23.7013 8.31404 26.0956C8.31404 26.9239 8.98574 27.5956 9.81404 27.5956C10.6423 27.5956 11.314 26.9239 11.314 26.0956C11.314 25.3555 11.9161 24.7535 12.6561 24.7535C13.8388 24.7535 13.9983 25.4318 13.9983 26.0956C13.9983 28.2649 10.8861 31.3697 8.92544 32.8165C8.40329 33.2006 8.18669 33.8765 8.38874 34.4926C8.59094 35.1085 9.16589 35.525 9.81404 35.525H15.4984C16.3267 35.525 16.9984 34.8533 16.9984 34.025C16.9984 33.1967 16.3267 32.525 15.4984 32.525H13.7313C15.3495 30.8008 16.9984 28.463 16.9984 26.0957C16.9983 23.4985 15.2532 21.7535 12.6561 21.7535Z" fill="#0037A2"/>
<path d="M20.1588 21.7535C19.3305 21.7535 18.6588 22.4252 18.6588 23.2535V28.6439C18.6588 29.4722 19.3305 30.1439 20.1588 30.1439H23.8325V34.0463C23.8325 34.8746 24.5042 35.5463 25.3325 35.5463C26.1608 35.5463 26.8325 34.8746 26.8325 34.0463V23.2537C26.8325 22.4254 26.1608 21.7537 25.3325 21.7537C24.5042 21.7537 23.8325 22.4254 23.8325 23.2537V27.1441H21.6588V23.2537C21.6588 22.4252 20.9871 21.7535 20.1588 21.7535Z" fill="#0037A2"/>
<path d="M31.523 35.5254C32.0927 35.5254 32.6373 35.1992 32.8889 34.647L37.7955 23.8756C38.1389 23.1217 37.806 22.2322 37.0523 21.8887C36.2981 21.5452 35.409 21.878 35.0654 22.6319L30.1587 33.4034C29.8154 34.1573 30.1482 35.0468 30.902 35.3903C31.1037 35.4821 31.3151 35.5254 31.523 35.5254Z" fill="#0037A2"/>
<path d="M43.8487 35.4617C43.9924 35.5049 44.1376 35.5255 44.2803 35.5255C44.9256 35.5255 45.5214 35.1058 45.7164 34.456L48.9478 23.6845C49.084 23.2304 48.9976 22.7384 48.7144 22.358C48.4314 21.9776 47.9853 21.7535 47.5111 21.7535H41.0482C40.2199 21.7535 39.5482 22.4252 39.5482 23.2535C39.5482 24.0818 40.2199 24.7535 41.0482 24.7535H45.4951L42.843 33.5941C42.6049 34.3874 43.0552 35.2237 43.8487 35.4617Z" fill="#0037A2"/>
<path d="M9.47834 7.96497C9.08234 7.96497 8.69534 8.12547 8.41634 8.40462C8.13749 8.68347 7.97684 9.07047 7.97684 9.46497C7.97684 9.85947 8.13734 10.2465 8.41634 10.5255C8.69534 10.8045 9.08234 10.965 9.47834 10.965C9.87284 10.965 10.2598 10.8046 10.5388 10.5255C10.8178 10.2463 10.9768 9.85947 10.9768 9.46497C10.9768 9.07047 10.8178 8.68347 10.5388 8.40462C10.2598 8.12547 9.87284 7.96497 9.47834 7.96497Z" fill="#0037A2"/>
</svg>
