<svg width="185" height="33" viewBox="0 0 185 33" fill="none" xmlns="http://www.w3.org/2000/svg">
<path fill-rule="evenodd" clip-rule="evenodd" d="M136.487 18.416C136.487 21.9338 139.017 25.703 142.783 25.703C144.223 25.703 145.722 25.0982 146.432 23.7764H146.711L147.482 25.1162H150.611V11.7716H147.515L146.711 13.1672H146.432C145.722 11.8454 144.237 11.1848 142.783 11.1848C139.017 11.1848 136.487 14.954 136.487 18.4718V18.416ZM146.654 19.8674C146.099 21.0512 144.95 22.2686 143.562 22.2686C141.398 22.2686 140.359 20.4578 140.359 18.4718C140.359 16.4858 141.398 14.675 143.562 14.675C144.905 14.675 146.101 16.046 146.654 17.1566V19.8674Z" fill="#003399"/>
<path fill-rule="evenodd" clip-rule="evenodd" d="M176.624 25.1163V16.8801C176.624 15.7341 177.349 14.6469 178.574 14.6469C179.799 14.6469 180.524 15.7347 180.524 16.8801V25.1163H184.424V16.8801C184.424 14.1201 182.674 11.1567 179.66 11.1567C178.112 11.1567 176.567 11.7789 175.732 13.1397H175.454C174.712 11.9313 173.49 11.1567 172.055 11.1567C170.742 11.1567 169.652 11.9835 169.046 13.1109H168.768L167.996 11.7711H164.867V25.1163H168.768V16.7451C169.078 15.8397 169.875 14.6751 170.857 14.6751C172.29 14.6751 172.692 15.8991 172.692 17.1321V25.1163H176.624Z" fill="#003399"/>
<path fill-rule="evenodd" clip-rule="evenodd" d="M162.445 15.2052V11.436H162.167C160.86 11.436 159.392 11.9256 158.656 13.0836H158.377L157.622 11.7714H154.477V25.1166H158.377V17.2758C158.844 16.0596 159.822 15.2052 161.163 15.2052H162.445Z" fill="#003399"/>
<path fill-rule="evenodd" clip-rule="evenodd" d="M119.191 5.9082L116.24 21.7452H115.946L112.982 5.9082H109.009C109.6 9.063 110.193 12.2172 110.813 15.345C111.453 18.5832 112.094 21.8496 112.735 25.1166H119.053L121.928 10.3794H122.346L125.221 25.1166H131.539L135.263 5.9082H131.292L128.328 21.7452L128.035 21.747L125.083 5.9082H119.191Z" fill="#003399"/>
<path fill-rule="evenodd" clip-rule="evenodd" d="M101.424 6.96904C101.424 8.24224 102.382 9.20284 103.652 9.20284C104.923 9.20284 105.881 8.24224 105.881 6.96904C105.881 5.69584 104.923 4.73584 103.652 4.73584C102.382 4.73584 101.424 5.69584 101.424 6.96904Z" fill="#003399"/>
<path fill-rule="evenodd" clip-rule="evenodd" d="M101.702 25.1164H105.602V11.7712H101.702V25.1164Z" fill="#003399"/>
<path fill-rule="evenodd" clip-rule="evenodd" d="M97.752 25.1165V17.4389C97.752 14.2193 95.8158 11.1011 92.32 11.1011C90.8789 11.1011 89.5031 11.8211 88.8092 13.1111H88.5308L87.759 11.7713H84.6308V25.1165H88.5308V17.0111C89.0989 15.8855 90.1215 14.6471 91.4842 14.6471C93.0127 14.6471 93.8515 15.9791 93.8515 17.4017V25.1165H97.752Z" fill="#003399"/>
<path fill-rule="evenodd" clip-rule="evenodd" d="M67.9384 5.9082H64.0385V17.3832C64.0385 22.086 67.842 25.8978 72.5353 25.8978C77.2279 25.8978 81.0321 22.086 81.0321 17.3832V5.9082H77.1315L77.1321 17.3832C77.1321 19.9266 75.0738 21.99 72.5353 21.99C69.9968 21.99 67.9384 19.9272 67.9384 17.3832V5.9082Z" fill="#003399"/>
<path fill-rule="evenodd" clip-rule="evenodd" d="M47.0445 18.3984C46.0806 26.559 39.2715 32.8878 30.7519 32.8878C27.1124 32.8878 22.3718 31.7742 18.0731 26.8842C15.6873 24.168 12.3016 22.3068 8.40882 22.3068H5.23508C7.33474 26.2758 11.4987 28.9794 16.2932 28.9794C16.4452 28.9794 16.5961 28.9764 16.747 28.971C17.8875 30.2508 19.1993 31.374 20.6476 32.3028C19.261 32.6844 17.8007 32.8878 16.2932 32.8878C7.89094 32.8878 0.964515 26.559 0 18.3984H8.40882C13.39 18.3984 17.9211 20.5608 21.0876 24.402C23.3872 27.1914 26.8585 28.9794 30.7519 28.9794C35.5457 28.9794 39.7103 26.2758 41.8094 22.3068H38.6357C35.059 22.3068 31.6829 23.8242 29.3018 26.4972C27.8775 26.2926 26.5484 25.7916 25.3797 25.0584L25.9575 24.4026C29.0947 20.8452 33.5287 18.3984 38.6357 18.3984H47.0445Z" fill="#00CCFF"/>
<path fill-rule="evenodd" clip-rule="evenodd" d="M0.000244141 14.4894C0.964759 6.3288 7.77324 0 16.2928 0C19.9323 0 24.6735 1.1136 28.971 6.0036C31.358 8.7192 34.7431 10.5804 38.6359 10.5804H41.8096C39.71 6.612 35.5466 3.9084 30.7516 3.9084C30.5995 3.9084 30.4486 3.9114 30.2977 3.9168C29.1572 2.637 27.8454 1.5138 26.3972 0.585C27.7838 0.2034 29.244 0 30.7516 0C39.1538 0 46.0802 6.3288 47.0447 14.4894H38.6359C33.6547 14.4894 29.1237 12.3264 25.9571 8.4858C23.6575 5.6958 20.1862 3.9084 16.2934 3.9084C11.499 3.9084 7.33498 6.612 5.23532 10.5804H8.40906C11.9857 10.5804 15.3618 9.0636 17.7429 6.39C19.1678 6.5946 20.4963 7.0962 21.6656 7.8294L21.0872 8.4852C17.95 12.042 13.516 14.4894 8.40906 14.4894H0.000244141Z" fill="#00CCFF"/>
</svg>
