<svg width="51" height="38" viewBox="0 0 51 38" fill="none" xmlns="http://www.w3.org/2000/svg">
<path fill-rule="evenodd" clip-rule="evenodd" d="M30.5376 34.9543C30.5376 36.4246 31.5951 38 33.1691 38C33.7709 38 34.3978 37.7473 34.6943 37.1948H34.8109L35.1335 37.7548H36.4413V32.1771H35.147L34.8109 32.7605H34.6943C34.3978 32.208 33.7772 31.9319 33.1691 31.9319C31.5951 31.9319 30.5376 33.5073 30.5376 34.9776V34.9543ZM34.7874 35.5608C34.5554 36.0556 34.075 36.5644 33.4949 36.5644C32.5905 36.5644 32.1561 35.8076 32.1561 34.9775C32.1561 34.1474 32.5905 33.3905 33.4949 33.3905C34.0562 33.3905 34.5562 33.9636 34.7874 34.4278V35.5608Z" fill="#003399"/>
<path fill-rule="evenodd" clip-rule="evenodd" d="M47.389 37.9304V34.3969C47.389 33.9052 47.6851 33.4388 48.1852 33.4388C48.6854 33.4388 48.9814 33.9055 48.9814 34.3969V37.9304H50.5739V34.3969C50.5739 33.2128 49.8595 31.9414 48.6287 31.9414C47.9965 31.9414 47.3658 32.2083 47.025 32.7922H46.9113C46.6082 32.2737 46.1095 31.9414 45.5233 31.9414C44.9872 31.9414 44.5423 32.2961 44.2949 32.7798H44.1812L43.8661 32.205H42.5885V37.9304H44.1812V34.339C44.3081 33.9505 44.6334 33.4509 45.0341 33.4509C45.6194 33.4509 45.7834 33.976 45.7834 34.505V37.9304H47.389Z" fill="#003399"/>
<path fill-rule="evenodd" clip-rule="evenodd" d="M41.2576 33.5915V31.9414H41.1414C40.5958 31.9414 39.9825 32.1557 39.6755 32.6627H39.559L39.2435 32.0882H37.9304V37.9304H39.559V34.4979C39.754 33.9655 40.1623 33.5915 40.7223 33.5915H41.2576Z" fill="#003399"/>
<path fill-rule="evenodd" clip-rule="evenodd" d="M23.4274 29.9451L22.2304 36.5289H22.1112L20.9091 29.9451H19.2979C19.5378 31.2566 19.7784 32.5679 20.0295 33.8681C20.2893 35.2143 20.5493 36.5723 20.8091 37.9304H23.3713L24.537 31.8038H24.7067L25.8726 37.9304H28.4348L29.945 29.9451H28.3348L27.1325 36.5289L27.0138 36.5296L25.8168 29.9451H23.4274Z" fill="#003399"/>
<path fill-rule="evenodd" clip-rule="evenodd" d="M15.9707 30.2776C15.9707 30.8466 16.4 31.2759 16.9689 31.2759C17.5379 31.2759 17.967 30.8466 17.967 30.2776C17.967 29.7086 17.5379 29.2795 16.9689 29.2795C16.4 29.2795 15.9707 29.7086 15.9707 30.2776" fill="#003399"/>
<path fill-rule="evenodd" clip-rule="evenodd" d="M15.9707 37.9304H17.967V31.9414H15.9707V37.9304Z" fill="#003399"/>
<path fill-rule="evenodd" clip-rule="evenodd" d="M14.6398 37.9304V34.6497C14.6398 33.2739 13.756 31.9414 12.1604 31.9414C11.5026 31.9414 10.8747 32.2491 10.5579 32.8003H10.4309L10.0786 32.2278H8.65079V37.9304H10.4309V34.4668C10.6902 33.9859 11.157 33.4567 11.7789 33.4567C12.4766 33.4567 12.8594 34.0259 12.8594 34.6338V37.9304H14.6398Z" fill="#003399"/>
<path fill-rule="evenodd" clip-rule="evenodd" d="M1.67988 29.9451H0V34.529C0 36.4077 1.63836 37.9304 3.65995 37.9304C5.68128 37.9304 7.3199 36.4077 7.3199 34.529V29.9451H5.63976L5.64002 34.529C5.64002 35.5451 4.7534 36.3693 3.65995 36.3693C2.5665 36.3693 1.67988 35.5453 1.67988 34.529V29.9451Z" fill="#003399"/>
<path fill-rule="evenodd" clip-rule="evenodd" d="M40.6218 12.2432C39.9803 17.6736 35.4493 21.8851 29.78 21.8851C27.358 21.8851 24.2035 21.144 21.3429 17.89C19.7553 16.0825 17.5023 14.844 14.9118 14.844H12.7999C14.1971 17.4851 16.968 19.2842 20.1585 19.2842C20.2597 19.2842 20.36 19.2822 20.4604 19.2787C21.2194 20.1303 22.0923 20.8777 23.0561 21.4958C22.1334 21.7497 21.1616 21.8851 20.1585 21.8851C14.5672 21.8851 9.95807 17.6736 9.31624 12.2432H14.9118C18.2266 12.2432 21.2417 13.6821 23.3489 16.2382C24.8792 18.0944 27.1891 19.2842 29.78 19.2842C32.97 19.2842 35.7413 17.4851 37.1381 14.844H35.0262C32.6461 14.844 30.3995 15.8537 28.815 17.6325C27.8672 17.4963 26.9828 17.1629 26.2051 16.675L26.5895 16.2386C28.6772 13.8714 31.6278 12.2432 35.0262 12.2432H40.6218Z" fill="#00CCFF"/>
<path fill-rule="evenodd" clip-rule="evenodd" d="M9.31641 9.64191C9.95824 4.21147 14.4889 0 20.1582 0C22.5801 0 25.7351 0.74104 28.5949 3.99507C30.1833 5.80215 32.4359 7.04068 35.0263 7.04068H37.1383C35.7411 4.39993 32.9706 2.60083 29.7797 2.60083C29.6785 2.60083 29.5781 2.60282 29.4777 2.60642C28.7188 1.75478 27.8459 1.00735 26.8821 0.389286C27.8048 0.135352 28.7765 0 29.7797 0C35.371 0 39.9801 4.21147 40.6219 9.64191H35.0263C31.7116 9.64191 28.6965 8.20255 26.5893 5.64684C25.059 3.79024 22.7491 2.60083 20.1586 2.60083C16.9682 2.60083 14.1973 4.39993 12.8001 7.04068H14.912C17.2921 7.04068 19.5387 6.03133 21.1232 4.2522C22.0714 4.38835 22.9554 4.72213 23.7335 5.21004L23.3487 5.64644C21.261 8.0133 18.3104 9.64191 14.912 9.64191H9.31641Z" fill="#00CCFF"/>
</svg>
