<svg width="22" height="30" viewBox="0 0 22 30" fill="none" xmlns="http://www.w3.org/2000/svg">
<path d="M10.989 0C4.94218 0 0.0333862 4.93862 0.0333862 11.0176C0.0333862 13.5575 0.951799 15.8288 2.30288 17.7365C10.989 29.9766 10.989 29.9766 10.989 29.9766C10.989 29.9766 10.989 29.9766 19.676 17.7351C21.0261 15.8279 21.9434 13.5509 21.9434 11.0176C21.9436 4.93862 17.0417 0 10.989 0Z" fill="#1C77C7"/>
<path d="M17.8275 11.0176C17.8275 14.8243 14.769 17.8969 10.989 17.8969C7.21432 17.8969 4.14948 14.8243 4.14948 11.0176C4.14948 7.22069 7.21432 4.1394 10.989 4.1394C14.7693 4.1394 17.8275 7.22069 17.8275 11.0176Z" fill="white"/>
</svg>
