<svg width="50" height="35" viewBox="0 0 50 35" fill="none" xmlns="http://www.w3.org/2000/svg">
<path fill-rule="evenodd" clip-rule="evenodd" d="M37.9541 7.55212C38.8298 3.276 42.6225 0 47.232 0C48.2925 0 49.152 0.8595 49.152 1.92V32.1281C49.152 32.6374 48.9499 33.1256 48.5899 33.4856C48.2295 33.8456 47.7412 34.0481 47.232 34.0481H39.6799C38.6194 34.0481 37.7599 33.1882 37.7599 32.1281V26.496H32.16V32.1281C32.16 33.1886 31.3005 34.0481 30.24 34.0481H18.912C17.8515 34.0481 16.992 33.1886 16.992 32.1281V26.496H11.3921V32.1281C11.3921 33.1886 10.5326 34.0481 9.47213 34.0481H1.92C0.8595 34.0481 0 33.1886 0 32.1281V1.92C0 0.8595 0.8595 0 1.92 0C6.48525 0 10.3065 3.24638 11.1964 7.55212H16.9928C17.01 3.38513 20.4049 0 24.576 0C28.7471 0 32.142 3.38513 32.1592 7.55212H37.9541ZM3.84 30.2077H7.55212V9.47175C7.55212 7.04025 6.003 4.9635 3.84 4.17712V30.2077ZM11.3921 22.656V11.3918H16.992V22.656H11.3921ZM20.832 7.584V30.2078H28.32V7.584C28.32 5.51962 26.6404 3.84 24.576 3.84C22.5116 3.84 20.832 5.51962 20.832 7.584ZM32.16 22.656V11.3918H37.7599V22.656H32.16ZM41.5999 30.2078H45.312V4.17413C43.1895 4.94175 41.5999 6.9915 41.5999 9.47175V30.2078Z" fill="#0036A3"/>
</svg>
