<svg width="41" height="41" viewBox="0 0 41 41" fill="none" xmlns="http://www.w3.org/2000/svg">
<path fill-rule="evenodd" clip-rule="evenodd" d="M14.1859 0H39.3569C40.2397 -0.000624186 40.9578 0.717813 40.9575 1.6V26.7719C40.9575 27.1963 40.7891 27.6031 40.4891 27.9031L27.9031 40.4891C27.6597 40.7325 27.3456 40.89 26.9997 40.9397C26.9873 40.9415 26.9778 40.9431 26.969 40.9446L26.9592 40.9462C26.8663 40.9615 26.771 40.9614 23.9498 40.9588C20.884 40.956 14.599 40.9501 1.6 40.9578C0.71625 40.9578 0 40.2413 0 39.3578V14.1866C-0.000312026 13.7875 0.15375 13.3759 0.458438 13.0656C0.529574 12.9934 6.32644 7.19651 10.0341 3.4888L13.0544 0.468438C13.3547 0.168438 13.7616 0 14.1859 0ZM35.4953 3.19969H14.8484L5.4625 12.5859H26.1091L35.4953 3.19969ZM3.19969 15.7856H25.1719V37.7578H3.19969V15.7856ZM28.3719 14.8488V35.4953L37.7578 26.1091V5.4625L28.3719 14.8488Z" fill="#0036A3"/>
</svg>
