<svg width="46" height="46" viewBox="0 0 46 46" fill="none" xmlns="http://www.w3.org/2000/svg">
<path fill-rule="evenodd" clip-rule="evenodd" d="M42.9125 1.8H3.08752C2.15552 1.8 1.40002 2.55266 1.40002 3.48116V23.3188C1.40002 24.2473 2.15552 25 3.08752 25H42.9125C43.8445 25 44.6 24.2473 44.6 23.3188V3.48116C44.6 2.55266 43.8445 1.8 42.9125 1.8ZM11.1875 21.6377H4.77502V19.1159H11.1875V21.6377ZM14.5625 21.6377H31.4375V19.1159H14.5625V21.6377ZM41.225 21.6377H34.8125V19.1159H41.225V21.6377ZM4.77502 15.7536H41.225V5.16232H4.77502V15.7536Z" fill="#0036A3"/>
<path d="M19.2085 33.2283C19.2085 32.1582 19.6158 31.6992 20.2906 30.9386C20.9053 30.2458 20.8259 29.1997 20.1131 28.6022C19.4005 28.0046 18.3243 28.0818 17.7096 28.7746C16.9037 29.6829 15.8 30.9267 15.8 33.2283C15.8 35.53 16.9037 36.7738 17.7095 37.682C18.3843 38.4426 18.7916 38.9016 18.7916 39.9718C18.7916 41.0419 18.3843 41.5008 17.7096 42.2614C17.0949 42.9542 17.1743 44.0003 17.887 44.5978C18.5995 45.1953 19.6759 45.1183 20.2906 44.4254C21.0964 43.5172 22.2 42.2733 22.2 39.9718C22.2 37.6702 21.0964 36.4263 20.2906 35.5181C19.6158 34.7576 19.2085 34.2984 19.2085 33.2283Z" fill="#0036A3"/>
<path d="M27.2085 33.2283C27.2085 32.1582 27.6158 31.6992 28.2905 30.9386C28.9052 30.2458 28.8258 29.1997 28.1131 28.6022C27.4005 28.0046 26.3243 28.0818 25.7095 28.7746C24.9037 29.6828 23.8 30.9267 23.8 33.2283C23.8 35.53 24.9037 36.7738 25.7095 37.6821C26.3843 38.4426 26.7916 38.9017 26.7916 39.9719C26.7916 41.0418 26.3843 41.5009 25.7096 42.2613C25.0949 42.9542 25.1743 44.0002 25.887 44.5978C26.5996 45.1953 27.6759 45.1182 28.2906 44.4253C29.0964 43.5172 30.2 42.2734 30.2 39.9719C30.2 37.6702 29.0964 36.4263 28.2906 35.5181C27.6158 34.7576 27.2085 34.2985 27.2085 33.2283Z" fill="#0036A3"/>
</svg>
