<svg width="47" height="47" viewBox="0 0 47 47" fill="none" xmlns="http://www.w3.org/2000/svg">
<path fill-rule="evenodd" clip-rule="evenodd" d="M0 23.04C0 10.3046 10.3064 0 23.04 0C35.7754 0 46.08 10.3064 46.08 23.04C46.08 35.7754 35.7736 46.08 23.04 46.08C10.3046 46.08 0 35.7736 0 23.04ZM3.6 23.04C3.6 33.7855 12.2959 42.48 23.04 42.48C33.7855 42.48 42.48 33.7841 42.48 23.04C42.48 12.2945 33.7841 3.6 23.04 3.6C12.2945 3.6 3.6 12.2959 3.6 23.04ZM31.9496 11.585L28.26 15.2743C26.768 14.2682 24.9715 13.68 23.04 13.68C17.8787 13.68 13.68 17.8787 13.68 23.04C13.68 28.2013 17.8787 32.4 23.04 32.4C28.2013 32.4 32.4 28.2013 32.4 23.04C32.4 21.1085 31.8118 19.3124 30.8057 17.82L34.495 14.1307C35.1981 13.4276 35.1981 12.2878 34.495 11.585C33.7922 10.8819 32.6524 10.8819 31.9496 11.585ZM17.28 23.04C17.28 26.216 19.864 28.8 23.04 28.8C26.216 28.8 28.8 26.216 28.8 23.04C28.8 19.864 26.216 17.28 23.04 17.28C19.864 17.28 17.28 19.864 17.28 23.04Z" fill="#0036A3"/>
</svg>
