<svg width="34" height="40" viewBox="0 0 34 40" fill="none" xmlns="http://www.w3.org/2000/svg">
<path fill-rule="evenodd" clip-rule="evenodd" d="M1.54336 0H32.1019C32.9544 0 33.6452 0.690895 33.6452 1.54336V37.9667C33.6452 38.8191 32.9544 39.51 32.1019 39.51H1.54336C0.690895 39.51 0 38.8191 0 37.9667V1.54336C0 0.690895 0.690895 0 1.54336 0ZM30.5585 36.4233V3.08672H3.08672V36.4233H30.5585ZM5.86477 32.1019V16.8226C5.86477 10.7803 10.7803 5.86477 16.8226 5.86477C22.8649 5.86477 27.7805 10.7803 27.7805 16.8226V32.1019C27.7805 32.9543 27.0896 33.6452 26.2371 33.6452C25.3847 33.6452 24.6938 32.9543 24.6938 32.1019V16.8226C24.6938 12.4825 21.1627 8.95149 16.8226 8.95149C12.4825 8.95149 8.95149 12.4825 8.95149 16.8226V32.1019C8.95149 32.9543 8.26059 33.6452 7.40813 33.6452C6.55566 33.6452 5.86477 32.9543 5.86477 32.1019ZM21.607 32.1019V16.8226C21.607 14.1844 19.4608 12.0382 16.8226 12.0382C14.1844 12.0382 12.0382 14.1844 12.0382 16.8226V32.1019C12.0382 32.9543 12.7291 33.6452 13.5816 33.6452C14.434 33.6452 15.1249 32.9543 15.1249 32.1019V16.8226C15.1249 15.8864 15.8864 15.1249 16.8226 15.1249C17.7589 15.1249 18.5203 15.8864 18.5203 16.8226V32.1019C18.5203 32.9543 19.2112 33.6452 20.0637 33.6452C20.9161 33.6452 21.607 32.9543 21.607 32.1019Z" fill="#0036A3"/>
</svg>
