<svg width="648" height="648" viewBox="0 0 648 648" fill="none" xmlns="http://www.w3.org/2000/svg">
<g opacity="0.377627">
<path opacity="0.142973" fill-rule="evenodd" clip-rule="evenodd" d="M324 648C502.94 648 648 502.94 648 324C648 145.06 502.94 0 324 0C145.06 0 0 145.06 0 324C0 502.94 145.06 648 324 648Z" fill="#1B71BC"/>
<path opacity="0.142973" fill-rule="evenodd" clip-rule="evenodd" d="M324 567C458.205 567 567 458.205 567 324C567 189.795 458.205 81 324 81C189.795 81 81 189.795 81 324C81 458.205 189.795 567 324 567Z" fill="#1B71BC"/>
<path opacity="0.142973" fill-rule="evenodd" clip-rule="evenodd" d="M324.5 493C417.56 493 493 417.56 493 324.5C493 231.44 417.56 156 324.5 156C231.44 156 156 231.44 156 324.5C156 417.56 231.44 493 324.5 493Z" fill="#1B71BC"/>
<path opacity="0.142973" fill-rule="evenodd" clip-rule="evenodd" d="M323.5 439C386.737 439 438 387.737 438 324.5C438 261.263 386.737 210 323.5 210C260.263 210 209 261.263 209 324.5C209 387.737 260.263 439 323.5 439Z" fill="#C0CEE1"/>
</g>
</svg>
