<svg width="56" height="56" viewBox="0 0 56 56" fill="none" xmlns="http://www.w3.org/2000/svg">
<path fill-rule="evenodd" clip-rule="evenodd" d="M53.9364 27.6022C53.9364 28.5658 54.2268 29.6218 54.5352 30.739L54.536 30.7418C55.0265 32.5206 55.5333 34.358 54.9276 36.1474C54.2976 38.0062 52.7316 39.2206 51.216 40.3954C50.3076 41.0986 49.4496 41.7646 48.8928 42.4966C48.3306 43.2383 47.9317 44.2303 47.5096 45.2802L47.5056 45.2902L47.5023 45.2983C46.8061 47.0298 46.0859 48.8212 44.472 49.9474C42.8868 51.0538 40.9092 51.1594 38.9964 51.2614C37.8036 51.325 36.6756 51.3862 35.7312 51.6802C34.8508 51.9537 33.9431 52.5198 32.982 53.1192L32.9688 53.1274L32.9638 53.1305C31.4062 54.1017 29.6414 55.2022 27.6012 55.2022C25.563 55.2022 23.8008 54.1039 22.2455 53.1346L22.236 53.1286L22.2305 53.1252C21.2665 52.524 20.3551 51.9557 19.4736 51.6814C18.5292 51.3874 17.4012 51.3262 16.2084 51.2626C14.2968 51.1606 12.318 51.055 10.7328 49.9486C9.11899 48.8207 8.39777 47.0282 7.70064 45.2956L7.70039 45.295C7.27679 44.239 6.87599 43.243 6.30839 42.4966C5.75279 41.7646 4.89479 41.0986 3.98639 40.3954C2.47199 39.2218 0.905988 38.0062 0.277188 36.1486C-0.328812 34.3582 0.177588 32.5186 0.667188 30.7402C0.975587 29.623 1.26599 28.567 1.26599 27.6034C1.26599 26.6398 0.975587 25.585 0.667188 24.4678L0.666355 24.4648C0.177014 22.6861 -0.328469 20.8488 0.277188 19.0606C0.905667 17.2039 2.46919 15.991 3.98287 14.8168L3.98519 14.815L3.99993 14.8035C4.90286 14.1022 5.7546 13.4406 6.30839 12.7102C6.87309 11.966 7.27318 10.9726 7.69656 9.9213L7.70039 9.9118L7.70193 9.90796C8.39865 8.17635 9.11878 6.38657 10.7304 5.2618C12.3163 4.15418 14.2914 4.04762 16.2023 3.94453L16.2084 3.9442C17.4012 3.8806 18.5292 3.8194 19.4748 3.5254C20.3528 3.25378 21.258 2.68886 22.2174 2.09012L22.2384 2.077C23.7948 1.1038 25.56 0.00219727 27.6012 0.00219727C29.6424 0.00219727 31.4076 1.1038 32.964 2.0758C33.9312 2.6794 34.8456 3.2494 35.7288 3.5242C36.6732 3.8182 37.8012 3.8794 38.994 3.943C40.9056 4.045 42.8856 4.1518 44.472 5.2606C46.0829 6.3849 46.8031 8.17485 47.4996 9.90579L47.502 9.9118C47.9244 10.9666 48.3252 11.9626 48.8916 12.709C49.4474 13.4397 50.3034 14.1035 51.2101 14.8066L51.2148 14.8102C52.7304 15.9838 54.2976 17.1994 54.9264 19.0594C55.5324 20.8474 55.026 22.687 54.5352 24.4654C54.2268 25.5826 53.9364 26.6386 53.9364 27.6022ZM49.7461 38.4971C51.0367 37.4967 52.2564 36.5514 52.6534 35.3782C53.0242 34.285 52.6344 32.8726 52.2214 31.3774C51.883 30.1558 51.5362 28.8934 51.5362 27.6034C51.5362 26.3134 51.8842 25.051 52.2214 23.8282L52.2258 23.8123C52.6358 22.323 53.0229 20.9167 52.6534 19.8298C52.2569 18.6558 51.0399 17.7113 49.7511 16.7112L49.7446 16.7062L49.7402 16.7028C48.7516 15.9358 47.7287 15.1423 46.9822 14.1598C46.2228 13.1615 45.7449 11.9743 45.2815 10.8228L45.2746 10.8058C44.6842 9.3358 44.125 7.9462 43.0978 7.2286C42.073 6.5134 40.5154 6.4282 38.8654 6.3406L38.8509 6.33981C37.5678 6.27046 36.2412 6.19876 35.0158 5.8174C33.8362 5.4502 32.7478 4.771 31.6942 4.1122C30.2854 3.2326 28.9546 2.4022 27.601 2.4022C26.2503 2.4022 24.9235 3.22906 23.5193 4.10418L23.5102 4.1098L23.5074 4.11156C22.4547 4.76862 21.366 5.44813 20.1874 5.815C18.9626 6.1974 17.6353 6.2692 16.3539 6.33853L16.3378 6.3394C14.6878 6.427 13.129 6.5098 12.1042 7.2262C11.0782 7.9414 10.519 9.331 9.92864 10.8034L9.92264 10.8183C9.45891 11.9693 8.97976 13.1585 8.21984 14.1574C7.47455 15.1411 6.4505 15.9358 5.46068 16.704L5.45624 16.7074L5.45383 16.7093C4.16472 17.7094 2.94799 18.6533 2.55104 19.8262C2.18024 20.9194 2.56904 22.3318 2.98184 23.827L2.98593 23.8419C3.32065 25.06 3.66584 26.3162 3.66584 27.601C3.66584 28.887 3.32002 30.1455 2.985 31.3647L2.98184 31.3762L2.98026 31.3819C2.56924 32.875 2.18071 34.2864 2.55104 35.3782C2.94756 36.5498 4.16329 37.493 5.45086 38.4919L5.45744 38.497L5.46385 38.502C6.45306 39.2696 7.47505 40.0627 8.22104 41.0446C8.98184 42.0478 9.46304 43.2418 9.92744 44.3974C10.519 45.8698 11.0794 47.2606 12.1066 47.9782C13.1302 48.6922 14.6878 48.7762 16.3366 48.8638C17.6242 48.9322 18.9574 49.0042 20.1886 49.387C21.367 49.7554 22.4554 50.4346 23.5066 51.091C24.9166 51.9718 26.2462 52.8022 27.601 52.8022C28.9558 52.8022 30.2866 51.9718 31.6966 51.091C32.749 50.4334 33.8386 49.7554 35.0158 49.387C36.2469 49.003 37.58 48.9322 38.8676 48.8638L38.8678 48.8638C40.5166 48.7762 42.073 48.6934 43.0978 47.9782C44.1262 47.2606 44.6854 45.8698 45.277 44.3962C45.7414 43.2406 46.2214 42.0478 46.981 41.0446C47.7287 40.062 48.7516 39.2685 49.7403 38.5016L49.7446 38.4982L49.7461 38.4971Z" fill="#0036A3"/>
<path fill-rule="evenodd" clip-rule="evenodd" d="M9.6012 27.6021C9.6012 17.6769 17.676 9.60205 27.6012 9.60205C37.5264 9.60205 45.6012 17.6769 45.6012 27.6021C45.6012 37.5273 37.5264 45.6021 27.6012 45.6021C17.676 45.6021 9.6012 37.5273 9.6012 27.6021ZM12.0012 27.6021C12.0012 36.2037 18.9996 43.2021 27.6012 43.2021C36.2028 43.2021 43.2012 36.2037 43.2012 27.6021C43.2012 24.3297 42.1836 21.2937 40.4556 18.7833L28.5792 35.4969C28.3752 35.7849 28.0536 35.9685 27.702 35.9972C27.6684 36.0009 27.6336 36.0021 27.6012 36.0021C27.2844 36.0021 26.9784 35.8773 26.7528 35.6504L19.5528 28.4505C19.0836 27.9813 19.0836 27.2229 19.5528 26.7537C20.022 26.2845 20.7804 26.2845 21.2496 26.7537L27.4452 32.9493L38.8812 16.8561C36.0372 13.8729 32.0376 12.0021 27.6012 12.0021C18.9996 12.0021 12.0012 19.0005 12.0012 27.6021Z" fill="#0036A3"/>
</svg>
