<svg width="58" height="58" viewBox="0 0 58 58" fill="none" xmlns="http://www.w3.org/2000/svg">
<path fill-rule="evenodd" clip-rule="evenodd" d="M50.9729 58C49.6195 58 48.3469 57.4632 47.3918 56.4866L30.0808 38.8056C26.828 39.9284 23.4063 39.7955 20.3769 38.4165C14.3096 35.6598 10.7873 27.8073 12.5245 20.9127C12.5478 20.8204 12.5852 20.7323 12.6359 20.6509L13.1822 19.7639C13.333 19.519 13.5883 19.3573 13.8742 19.3254C14.1634 19.2888 14.4452 19.3953 14.6462 19.6004L22.3416 27.4592L26.5809 26.3461L27.7503 21.8623L20.128 14.0774C19.9028 13.8472 19.8119 13.5179 19.8868 13.2054C19.9617 12.893 20.192 12.6404 20.4957 12.5367L20.7849 12.4385C26.1538 10.3748 32.0778 11.5195 35.8408 15.3628C39.2346 18.8293 40.4433 24.2458 38.9902 29.3005L56.5269 47.2122C58.4856 49.2138 58.4856 52.4697 56.5269 54.4713L54.555 56.4857C53.5999 57.4632 52.3287 58 50.9729 58ZM30.3261 36.7826C30.5727 36.7826 30.8144 36.8799 30.9948 37.0639L48.7297 55.1775C49.931 56.4049 52.019 56.4031 53.218 55.1775L55.1899 53.1636C56.4438 51.8837 56.4438 49.8008 55.1899 48.5209L37.2645 30.2127C37.0202 29.9628 36.9352 29.5988 37.0444 29.2667C38.5358 24.7145 37.5386 19.7707 34.5038 16.6724C31.5109 13.6143 26.902 12.5513 22.5069 13.8312L29.2481 20.7163C29.6441 21.1205 29.703 21.6837 29.6272 22.0756L28.3276 27.0609C28.2445 27.4985 27.8814 27.8982 27.3707 28.0722L22.5462 29.3389C22.0255 29.4471 21.5107 29.2836 21.159 28.9241L14.2301 21.8473C12.9744 27.7868 16.0074 34.3753 21.1526 36.714C23.8992 37.962 27.035 38.0108 29.9844 36.8488C30.094 36.804 30.2109 36.7826 30.3261 36.7826ZM26.5193 26.5836C26.5129 26.6032 26.5074 26.6238 26.5033 26.6443L26.5193 26.5836Z" fill="#0036A3"/>
<path d="M20.2777 51.969C19.9831 51.969 19.6867 51.9334 19.3939 51.8594C17.4105 51.362 16.1914 49.3124 16.6751 47.2925L16.8035 46.7595C15.4797 46.1707 14.246 45.4887 13.1177 44.7199L12.8021 45.0593C11.8808 46.0268 10.5086 46.4196 9.22049 46.0962C8.53076 45.9231 7.91456 45.5769 7.48199 45.1224C6.04542 43.6639 6.01253 41.285 7.42215 39.831L7.75423 39.4738C6.92289 38.3109 6.19022 37.0744 5.569 35.7812L5.06015 35.9187C4.42705 36.0946 3.77386 36.1051 3.12569 35.9411C1.84031 35.6186 0.811188 34.627 0.438 33.3521C-0.150332 31.4044 0.962839 29.3078 2.92151 28.6875L3.39702 28.549C3.24902 27.1572 3.22481 25.7257 3.32576 24.2759L2.82421 24.1494C0.841336 23.651 -0.377808 21.6024 0.105921 19.5825C0.342533 18.5954 0.951419 17.7631 1.81976 17.2374C2.668 16.7226 3.65784 16.5714 4.60565 16.8098L5.07522 16.9277C5.58864 15.6752 6.25189 14.4401 7.08368 13.1867L6.72922 12.8413C5.26707 11.3568 5.23418 8.97789 6.64289 7.52396C7.34267 6.8027 8.31927 6.38566 9.32236 6.3811H9.33926C10.3268 6.3811 11.2495 6.76433 11.936 7.46138L12.2869 7.7898C13.3448 6.98268 14.5507 6.2395 15.8849 5.5726L15.7474 5.07973C15.1627 3.14116 16.2759 1.045 18.2346 0.425609C20.2458 -0.170031 22.2826 0.950449 22.8924 2.97307L23.0289 3.46136C24.3732 3.31519 25.7728 3.29464 27.208 3.3997L27.3313 2.88217C27.5679 1.89552 28.1768 1.06282 29.0452 0.537063C29.8934 0.0236435 30.8814 -0.128007 31.832 0.109518C33.8153 0.608321 35.034 2.65698 34.5494 4.67548L34.4205 5.20992C35.7443 5.79733 36.9781 6.48113 38.1063 7.24898L38.4224 6.90959C39.1354 6.17326 40.112 5.75714 41.1156 5.75211H41.1325C42.1205 5.75211 43.0418 6.13581 43.7293 6.83377C45.1786 8.30414 45.2101 10.683 43.8014 12.137L43.4693 12.4951C44.3011 13.6571 45.0334 14.8941 45.6555 16.1877L46.1634 16.0502C48.1422 15.4664 50.174 16.586 50.7828 18.6077C51.3744 20.5645 50.2598 22.6612 48.3021 23.2806L47.827 23.419C47.9746 24.8117 47.9997 26.2441 47.8987 27.693L48.4003 27.8196C50.3836 28.3179 51.6032 30.3666 51.1186 32.3865C50.882 33.3736 50.2731 34.2058 49.4052 34.7325C48.5565 35.2454 47.5667 35.3989 46.6184 35.1591L46.1465 35.0413C45.9204 35.5876 45.6573 36.1453 45.3517 36.7272C45.1119 37.1845 44.5478 37.3594 44.0878 37.121C43.6301 36.8807 43.4534 36.3157 43.6941 35.8571C44.1066 35.0705 44.4336 34.3369 44.6912 33.6166C44.8538 33.1648 45.3339 32.9086 45.7998 33.0246L47.0729 33.3443C47.531 33.4594 48.0148 33.3845 48.4341 33.131C48.8717 32.8665 49.1786 32.4463 49.2974 31.9489C49.5491 30.9047 48.953 29.887 47.943 29.6325L46.6705 29.3123C46.2205 29.1995 45.9204 28.7738 45.967 28.3115C46.1543 26.4538 46.1223 24.6249 45.8715 22.8754C45.8062 22.414 46.0885 21.9755 46.5357 21.8444L47.7558 21.4882C48.7241 21.1812 49.2873 20.1288 48.9904 19.1467C48.6817 18.124 47.6603 17.5544 46.6723 17.8481L45.3796 18.1989C44.926 18.3177 44.4656 18.0961 44.2797 17.674C43.5415 16.0073 42.6106 14.4327 41.5102 12.9948C41.2325 12.633 41.2567 12.1237 41.5682 11.7898L42.443 10.8489C43.1642 10.1043 43.1354 8.89841 42.3945 8.14609C42.0597 7.8067 41.5956 7.63998 41.1224 7.62217C40.619 7.62445 40.1289 7.83365 39.7781 8.19588L38.9162 9.12269C38.5919 9.47258 38.0565 9.52145 37.6742 9.23779C36.2933 8.21461 34.7115 7.33622 32.9712 6.62684C32.5427 6.4519 32.3061 5.99101 32.4139 5.54199L32.7273 4.2388C32.9694 3.22932 32.3491 2.16959 31.3725 1.92339C30.9171 1.80828 30.4297 1.88319 30.0113 2.13762C29.5746 2.40255 29.2676 2.82142 29.1479 3.31931L28.8392 4.62113C28.73 5.07791 28.3034 5.38166 27.8311 5.33325C25.9701 5.13774 24.1704 5.16469 22.4844 5.41638C22.0176 5.48672 21.5713 5.19758 21.4453 4.74309L21.0963 3.49608C20.793 2.49116 19.7735 1.91882 18.7836 2.21618C17.8107 2.52405 17.2488 3.57739 17.5453 4.55855L17.8988 5.8252C18.0222 6.2669 17.807 6.73282 17.3909 6.92558C15.6264 7.74321 14.0962 8.69057 12.8414 9.74208C12.4796 10.0463 11.9475 10.0321 11.6012 9.70828L10.631 8.80111C10.2688 8.43523 9.82755 8.20502 9.33058 8.25115C8.82766 8.25298 8.338 8.46264 7.98628 8.82441C7.27918 9.55434 7.30613 10.7598 8.04703 11.513L8.95282 12.3932C9.28307 12.7143 9.32966 13.2278 9.06428 13.6037C7.92827 15.2111 7.09875 16.7637 6.53098 18.3505C6.36791 18.8032 5.88829 19.0595 5.42237 18.9416L4.14887 18.6219C3.68981 18.5058 3.20608 18.5826 2.78813 18.8352C2.35099 19.1024 2.04541 19.5226 1.92527 20.0196C1.68318 21.0286 2.30349 22.0897 3.28008 22.3355L4.55312 22.6557C5.00305 22.769 5.3027 23.1942 5.25565 23.6565C5.06883 25.5133 5.10035 27.3432 5.3502 29.0935C5.41552 29.554 5.13323 29.9925 4.68696 30.1236L3.4669 30.4799C2.49899 30.7868 1.93669 31.8392 2.23314 32.8213C2.42225 33.469 2.93841 33.9674 3.58201 34.1282C3.9182 34.2127 4.23064 34.2081 4.56546 34.1154L5.84307 33.7691C6.28934 33.6504 6.75617 33.8719 6.94254 34.2949C7.67886 35.9598 8.61024 37.5344 9.71153 38.9741C9.98834 39.3363 9.96413 39.8452 9.65352 40.1791L8.7797 41.1201C8.05845 41.8646 8.08631 43.0705 8.82766 43.8228C9.02773 44.0343 9.33241 44.196 9.6759 44.2828C10.3232 44.4459 10.9827 44.2577 11.4382 43.779L12.3038 42.8462C12.6285 42.4963 13.1634 42.4475 13.5471 42.7311C14.9279 43.7552 16.5098 44.6327 18.2506 45.343C18.679 45.5179 18.9147 45.9779 18.8074 46.4274L18.4949 47.7301C18.2524 48.7396 18.8727 49.8007 19.8493 50.0465C20.3088 50.1606 20.7921 50.0866 21.2105 49.8322C21.6481 49.5677 21.9541 49.1484 22.0738 48.651L22.3853 47.3469C22.4959 46.891 22.9298 46.5863 23.3939 46.6348C25.2562 46.8312 27.0554 46.8033 28.741 46.5507C29.2014 46.4849 29.6531 46.7695 29.7806 47.2249L30.1296 48.4728C30.3127 49.1018 30.8289 49.5993 31.4734 49.7614C31.8046 49.8455 32.1248 49.8418 32.4559 49.7482C33.4147 49.4449 33.977 48.3925 33.6815 47.4104L33.3279 46.1428C33.2041 45.7011 33.4193 45.2352 33.8359 45.0424C34.728 44.6291 35.5945 44.1595 36.4094 43.6479C36.8479 43.3738 37.4252 43.5058 37.6993 43.9416C37.9743 44.3792 37.8423 44.9566 37.4056 45.2315C36.7442 45.6468 36.0517 46.0359 35.34 46.3936L35.4775 46.8883C36.0631 48.8259 34.9509 50.9221 32.9908 51.5406C32.3194 51.7297 31.6653 51.7388 31.0171 51.5753C29.7335 51.2523 28.7044 50.2607 28.3312 48.9858L28.1974 48.5057C26.8531 48.6528 25.454 48.6743 24.0188 48.5674L23.8954 49.0858C23.6584 50.0729 23.0495 50.9043 22.1816 51.431C21.5942 51.7863 20.9392 51.969 20.2777 51.969Z" fill="#0036A3"/>
</svg>
