<svg width="60" height="41" viewBox="0 0 60 41" fill="none" xmlns="http://www.w3.org/2000/svg">
<path fill-rule="evenodd" clip-rule="evenodd" d="M0 0H59.52V40.32H41.7656H39.6825H35.978H33.9103H33.6H31.68H27.84H25.92H25.6097H23.542H19.8375H17.7544H0V0ZM57.6 32.64V1.92H1.92V32.64H57.6ZM1.92 34.56V38.4H57.6V34.56H1.92Z" fill="#0036A3"/>
<path fill-rule="evenodd" clip-rule="evenodd" d="M45.12 30.7201C39.2977 30.7201 34.56 25.9824 34.56 20.1601C34.56 14.3378 39.2977 9.6001 45.12 9.6001C50.9423 9.6001 55.68 14.3378 55.68 20.1601C55.68 25.9824 50.9423 30.7201 45.12 30.7201ZM44.16 21.1201H36.5367C36.9811 25.1185 40.1625 28.299 44.16 28.7434V21.1201ZM53.76 20.1601C53.76 24.6001 50.3934 28.2643 46.08 28.7434V11.5768C50.3934 12.0559 53.76 15.7201 53.76 20.1601ZM44.16 19.2001V11.5768C40.1625 12.0212 36.9811 15.2017 36.5367 19.2001H44.16Z" fill="#0036A3"/>
<path fill-rule="evenodd" clip-rule="evenodd" d="M5.75999 14.094V23.04H21.12V14.094L22.44 15.1496L23.6391 13.6505L13.44 5.49146L3.23999 13.6505L4.43905 15.1496L5.75999 14.094ZM11.52 21.12V17.28H15.36V21.12H11.52ZM19.2 21.12V12.5579L13.44 7.94958L7.67999 12.5579V21.12H9.59999V15.36H17.28V21.12H19.2Z" fill="#0036A3"/>
<path d="M3.84003 28.8H5.76003V30.72H3.84003V28.8Z" fill="#0036A3"/>
<path d="M7.67999 28.8H23.04V30.72H7.67999V28.8Z" fill="#0036A3"/>
<path d="M3.84003 24.96H23.04V26.88H3.84003V24.96Z" fill="#0036A3"/>
<path d="M26.88 5.76009H28.8V14.4001H30.72V5.76009H32.64V12.4801H34.56V5.76009H36.48V9.60009H38.4V3.84009H24.96V12.4801H26.88V5.76009Z" fill="#0036A3"/>
</svg>
