<svg width="65" height="65" viewBox="0 0 65 65" fill="none" xmlns="http://www.w3.org/2000/svg">
<path fill-rule="evenodd" clip-rule="evenodd" d="M52.1671 55.9871L49.7669 48.7855C48.9282 46.2713 46.7882 44.4154 44.1796 43.9405L37.2507 42.6798V42.1427C38.4565 41.4429 39.5057 40.5067 40.3414 39.3983H42.4347C44.1496 39.3983 45.5451 38.0028 45.5451 36.2879V23.8463C45.5451 16.4145 39.4985 10.3679 32.0667 10.3679C24.6349 10.3679 18.5883 16.4145 18.5883 23.8463V31.1039C18.5883 33.1029 20.0097 34.7752 21.8947 35.1651C22.4763 38.1448 24.3384 40.6663 26.8827 42.1427V42.6798L19.9527 43.9405C17.3452 44.4154 15.2042 46.2713 14.3664 48.7855L13.9517 50.0307L10.4204 46.4994C10.016 46.095 10.016 45.4366 10.4204 45.0323L14.5157 40.938L6.82891 33.2511L2.20064 37.8794C0.829986 39.2501 0.0751953 41.0728 0.0751953 43.0116C0.0751953 44.9504 0.829986 46.772 2.20064 48.1427L16.213 62.155C17.5836 63.5257 19.4063 64.2815 21.3451 64.2815C23.284 64.2815 25.1056 63.5257 26.4441 62.1861L31.4944 57.5589L29.9195 55.9871H52.1671ZM43.4715 36.2879C43.4715 36.8602 43.006 37.3247 42.4347 37.3247H41.5627C41.8634 36.6394 42.0915 35.9167 42.2387 35.1651C42.6825 35.0728 43.091 34.8965 43.4715 34.6747V36.2879ZM42.4347 29.3186V32.8893C43.0516 32.5295 43.4715 31.868 43.4715 31.1039C43.4715 30.3398 43.0516 29.6783 42.4347 29.3186ZM21.6987 32.8893C21.0818 32.5295 20.6619 31.868 20.6619 31.1039C20.6619 30.3398 21.0818 29.6783 21.6987 29.3186V32.8893ZM21.6987 27.1039V25.9199H22.7355C25.8013 25.9199 28.6836 24.7255 30.8526 22.5576L32.0667 21.3435L33.2808 22.5576C35.4498 24.7255 38.3321 25.9199 41.3979 25.9199H42.4347V27.1039C42.8038 27.1993 43.1501 27.3455 43.4715 27.5332V23.8463C43.4715 17.5581 38.3549 12.4415 32.0667 12.4415C25.7785 12.4415 20.6619 17.5581 20.6619 23.8463V27.5332C20.9833 27.3455 21.3296 27.2004 21.6987 27.1039ZM23.7723 33.1775V27.9541C26.8858 27.7198 29.7888 26.4352 32.0667 24.2693C34.3445 26.4352 37.2476 27.7208 40.3611 27.9541V33.1775C40.3611 34.6892 39.9485 36.1034 39.2393 37.3247H32.0667V39.3983H37.5348C36.0729 40.685 34.1621 41.4719 32.0667 41.4719C27.4934 41.4719 23.7723 37.7508 23.7723 33.1775ZM35.1771 43.1163V43.0676C34.1942 43.3765 33.1502 43.5455 32.0667 43.5455C30.9832 43.5455 29.9392 43.3765 28.9563 43.0676V43.1163L32.0667 46.2267L35.1771 43.1163ZM16.3322 49.4408C16.9305 47.645 18.4597 46.319 20.3229 45.9789L27.5701 44.6622L32.0667 49.1588L36.5623 44.6632L43.8085 45.9799C45.6716 46.32 47.2009 47.645 47.7991 49.4418L49.2911 53.9135H27.8459L23.8075 49.8752L19.3203 53.9343C18.9294 54.3272 18.2462 54.3272 17.8542 53.9343L15.5899 51.6699L16.3322 49.4408ZM11.5826 40.938L6.82787 36.1832L5.70191 37.3092L10.4567 42.0639L11.5826 40.938ZM25.0082 60.6911C24.0294 61.6677 22.7272 62.2079 21.3431 62.2079C19.9589 62.2079 18.6567 61.6677 17.6769 60.689L3.6646 46.6777C2.68586 45.699 2.14672 44.3967 2.14672 43.0126C2.14672 41.6274 2.68586 40.3252 3.6646 39.3465L4.23484 38.7762L8.9896 43.531L8.95228 43.5683C7.74026 44.7814 7.74026 46.7544 8.95228 47.9675L16.3872 55.4024C16.975 55.9892 17.7557 56.3137 18.5873 56.3137C19.4188 56.3137 20.1995 55.9902 20.749 55.4387L20.8267 55.3692L25.6033 60.1457L25.0082 60.6911ZM22.3674 53.9757L27.1336 58.7419L28.4949 57.4957L23.737 52.7378L22.3674 53.9757Z" fill="#0036A3"/>
<path fill-rule="evenodd" clip-rule="evenodd" d="M46.5818 0H61.097C62.8119 0 64.2074 1.39553 64.2074 3.1104V11.4048C64.2074 13.1197 62.8119 14.5152 61.097 14.5152H58.2842L48.2791 20.7681L49.3511 14.5152H46.5818C44.867 14.5152 43.4714 13.1197 43.4714 11.4048V3.1104C43.4714 1.39553 44.867 0 46.5818 0ZM61.097 12.4416C61.6683 12.4416 62.1338 11.9761 62.1338 11.4048V3.1104C62.1338 2.53912 61.6683 2.0736 61.097 2.0736H46.5818C46.0106 2.0736 45.545 2.53912 45.545 3.1104V11.4048C45.545 11.9761 46.0106 12.4416 46.5818 12.4416H51.8104L51.1044 16.5567L57.6891 12.4416H61.097Z" fill="#0036A3"/>
<rect x="47.6187" y="4.14722" width="12.4416" height="2.0736" fill="#0036A3"/>
<rect x="47.6187" y="8.29443" width="8.2944" height="2.0736" fill="#0036A3"/>
<rect x="57.9867" y="8.29443" width="2.0736" height="2.0736" fill="#0036A3"/>
<path d="M32.0666 3.11035C18.5198 3.11035 6.85062 12.481 3.81694 25.5519L1.85221 22.2766L0.0740967 23.3435L3.71845 29.416L9.79099 25.7717L8.72412 23.9936L5.91439 25.6794C8.85268 13.722 19.6053 5.18395 32.0666 5.18395C34.7903 5.18395 37.4777 5.5883 40.0541 6.38664L40.6679 4.40635C37.8924 3.54581 34.9987 3.11035 32.0666 3.11035Z" fill="#0036A3"/>
<path d="M63.7036 22.9569L57.6311 19.3125L53.9878 25.3861L55.7659 26.4529L57.5803 23.4286C58.5352 26.2228 59.0235 29.1455 59.0235 32.1408C59.0235 38.3067 56.8877 44.3346 53.0111 49.1132L54.6213 50.4196C58.7975 45.2729 61.0971 38.7805 61.0971 32.1408C61.0971 28.9693 60.586 25.8723 59.5896 22.9071L62.6368 24.735L63.7036 22.9569Z" fill="#0036A3"/>
</svg>
