<svg width="47" height="57" viewBox="0 0 47 57" fill="none" xmlns="http://www.w3.org/2000/svg">
<path d="M14 23.5C14 22.675 13.371 22 12.6023 22H1.39767C0.628952 22 0 22.675 0 23.5C0 24.325 0.628952 25 1.39767 25H12.6023C13.371 25 14 24.325 14 23.5Z" fill="#0036A3"/>
<path d="M45.6023 22H34.3977C33.629 22 33 22.675 33 23.5C33 24.325 33.629 25 34.3977 25H45.6023C46.371 25 47 24.325 47 23.5C47 22.675 46.3827 22 45.6023 22Z" fill="#0036A3"/>
<path d="M23.5 14C24.325 14 25 13.371 25 12.6023V1.39767C25 0.628952 24.325 0 23.5 0C22.675 0 22 0.628952 22 1.39767V12.6023C22 13.371 22.675 14 23.5 14Z" fill="#0036A3"/>
<path d="M31.4354 17C31.8055 17 32.1636 16.8567 32.4501 16.5821L40.5792 8.45075C41.1403 7.88955 41.1403 6.98209 40.5792 6.4209C40.0182 5.8597 39.111 5.8597 38.5499 6.4209L30.4208 14.5522C29.8597 15.1134 29.8597 16.0209 30.4208 16.5821C30.7073 16.8567 31.0773 17 31.4354 17Z" fill="#0036A3"/>
<path d="M15.5499 16.5821C15.8245 16.8567 16.1945 17 16.5646 17C16.9346 17 17.2927 16.8567 17.5792 16.5821C18.1403 16.0209 18.1403 15.1134 17.5792 14.5522L9.45008 6.4209C8.88904 5.8597 7.98182 5.8597 7.42078 6.4209C6.85974 6.98209 6.85974 7.88955 7.42078 8.45075L15.5499 16.5821Z" fill="#0036A3"/>
<path fill-rule="evenodd" clip-rule="evenodd" d="M40.864 32.1422C39.7765 31.2242 38.4021 30.7181 37.0039 30.7181H35.7012H31.0165H28.7937V25.0097C28.7937 22.2791 27.9691 20.29 26.3318 19.1013C23.7504 17.2417 20.2489 18.2892 20.0935 18.3362C19.496 18.5246 19.0896 19.066 19.0896 19.678V26.5633C19.0896 28.6583 18.0738 30.4356 16.0541 31.8597C14.5244 32.9426 12.9589 33.4369 12.7557 33.4957L12.6123 33.531C12.0745 32.9308 11.2858 32.5541 10.4014 32.5541H4.95185C3.32654 32.5541 2 33.8606 2 35.4613V53.0689C2 54.6696 3.32654 55.976 4.95185 55.976H10.4253C11.1424 55.976 11.8116 55.7171 12.3135 55.2934C13.413 56.3527 14.9069 57 16.5202 57H21.9578H22.5195H33.6457C35.3666 57 36.8844 56.5881 38.0436 55.823C39.5255 54.8344 40.4457 53.269 40.7086 51.2681L42.9195 37.7329C43.2661 35.6378 42.4773 33.4957 40.864 32.1422ZM10.509 53.0689C10.509 53.116 10.4731 53.1513 10.4253 53.1513H4.95185C4.90404 53.1513 4.86819 53.116 4.86819 53.0689V35.4613C4.86819 35.4142 4.90404 35.3789 4.95185 35.3789H10.4253C10.4731 35.3789 10.509 35.4142 10.509 35.4613V53.0689ZM37.8763 50.8562L40.0872 37.2974C40.2664 36.1557 39.8601 35.0023 38.9997 34.2725C38.426 33.8017 37.7209 33.531 37.0039 33.531H35.7012H31.0165H27.3596C26.5708 33.531 25.9255 32.8955 25.9255 32.1187V24.9979C25.9255 23.2207 25.4953 21.9966 24.6348 21.3728C23.8341 20.7961 22.7466 20.7608 21.9578 20.8432V26.5633C21.9578 29.5999 20.464 32.2481 17.6555 34.2137C15.6493 35.6283 13.6314 36.1952 13.5225 36.2258L13.5206 36.2263C13.5086 36.2263 13.4997 36.2293 13.4907 36.2322C13.4817 36.2351 13.4728 36.2381 13.4608 36.2381L13.3772 36.2616V51.3976C13.3891 51.4447 13.4011 51.5035 13.413 51.5624C13.652 53.0571 14.9905 54.187 16.5202 54.187H21.9578H22.5195H33.6457C37.458 54.187 37.7687 51.7271 37.8643 50.915C37.8763 50.8915 37.8763 50.8679 37.8763 50.8562Z" fill="#0036A3"/>
</svg>
