<svg width="55" height="66" viewBox="0 0 55 66" fill="none" xmlns="http://www.w3.org/2000/svg">
<path d="M53.4044 21.5311H47.8091C47.2767 21.5311 46.8447 21.9631 46.8447 22.4956C46.8447 23.028 47.2767 23.46 47.8091 23.46H53.4044C53.9368 23.46 54.3688 23.028 54.3688 22.4956C54.3688 21.9631 53.9368 21.5311 53.4044 21.5311Z" fill="#0036A3"/>
<path d="M47.8091 15.6435H50.3493C50.8818 15.6435 51.3137 15.2116 51.3137 14.6791C51.3137 14.1461 50.8818 13.7147 50.3493 13.7147H47.8091C47.2767 13.7147 46.8447 14.1461 46.8447 14.6791C46.8447 15.2116 47.2767 15.6435 47.8091 15.6435Z" fill="#0036A3"/>
<path d="M47.8091 7.82652H51.2494C51.7824 7.82652 52.2139 7.39504 52.2139 6.86208C52.2139 6.32963 51.7824 5.89764 51.2494 5.89764H47.8091C47.2767 5.89764 46.8447 6.32963 46.8447 6.86208C46.8447 7.39504 47.2767 7.82652 47.8091 7.82652Z" fill="#0036A3"/>
<path d="M51.2499 37.1646H47.8091C47.2767 37.1646 46.8447 37.5961 46.8447 38.1291C46.8447 38.6615 47.2767 39.0935 47.8091 39.0935H51.2499C51.7824 39.0935 52.2144 38.6615 52.2144 38.1291C52.2144 37.5961 51.7824 37.1646 51.2499 37.1646Z" fill="#0036A3"/>
<path d="M47.8091 31.2765H50.3493C50.8818 31.2765 51.3137 30.845 51.3137 30.312C51.3137 29.7796 50.8818 29.3476 50.3493 29.3476H47.8091C47.2767 29.3476 46.8447 29.7796 46.8447 30.312C46.8447 30.845 47.2767 31.2765 47.8091 31.2765Z" fill="#0036A3"/>
<path fill-rule="evenodd" clip-rule="evenodd" d="M43.6218 8.72366V39.8384C47.2259 42.568 49.3622 46.8427 49.3622 51.3755C49.3622 59.3507 42.8739 65.8391 34.8982 65.8391C26.9229 65.8391 20.4346 59.3507 20.4346 51.3755C20.4346 46.8427 22.5714 42.568 26.175 39.8384V8.72366C26.175 3.91352 30.0885 0 34.8982 0C39.7088 0 43.6218 3.91352 43.6218 8.72366ZM22.3635 51.3755C22.3635 58.2873 27.9868 63.9102 34.8982 63.9102C41.81 63.9102 47.4334 58.2873 47.4334 51.3755C47.4334 47.3008 45.4402 43.4661 42.1023 41.1173C41.8456 40.9365 41.6929 40.6421 41.6929 40.3282V8.72366C41.6929 4.97691 38.6449 1.92888 34.8982 1.92888C31.1519 1.92888 28.1039 4.97691 28.1039 8.72366V40.3282C28.1039 40.6421 27.9512 40.9365 27.6945 41.1173C24.3566 43.4656 22.3635 47.3008 22.3635 51.3755Z" fill="#0036A3"/>
<path fill-rule="evenodd" clip-rule="evenodd" d="M39.1201 8.72365V41.7497C42.7744 43.3968 45.1855 47.0842 45.1855 51.1304C45.1855 56.803 40.5708 61.4177 34.8981 61.4177C29.226 61.4177 24.6108 56.803 24.6108 51.1304C24.6108 47.0842 27.0224 43.3963 30.6767 41.7497V37.3514C30.6767 36.819 31.1087 36.387 31.6411 36.387C32.1736 36.387 32.6056 36.819 32.6056 37.3514V42.3952C32.6056 42.798 32.3554 43.1582 31.9777 43.2993C28.7252 44.5109 26.5397 47.6579 26.5397 51.1304C26.5397 55.7396 30.2894 59.4889 34.8981 59.4889C39.5074 59.4889 43.2566 55.7396 43.2566 51.1304C43.2566 47.6579 41.0716 44.5109 37.8186 43.2993C37.4413 43.1587 37.1912 42.798 37.1912 42.3952V15.6435H32.6056V33.4927C32.6056 34.0256 32.1736 34.4571 31.6411 34.4571C31.1087 34.4571 30.6767 34.0256 30.6767 33.4927V8.72365C30.6767 6.39543 32.5704 4.50171 34.8981 4.50171C37.2264 4.50171 39.1201 6.39543 39.1201 8.72365ZM32.6056 8.72365V13.7146H37.1912V8.72365C37.1912 7.45933 36.1625 6.43059 34.8986 6.43059C33.6343 6.43059 32.6056 7.45933 32.6056 8.72365Z" fill="#0036A3"/>
<path fill-rule="evenodd" clip-rule="evenodd" d="M21.5005 18.0747C22.7417 18.8126 22.1203 20.7285 20.6807 20.5963C18.9296 20.4346 17.6472 22.2058 18.3404 23.8172C18.9115 25.1438 17.2815 26.3287 16.1955 25.3758C14.874 24.2155 12.7954 24.8936 12.4086 26.606C12.0906 28.0145 10.0759 28.016 9.7574 26.606C9.37012 24.8911 7.29004 24.2175 5.97047 25.3758C4.88547 26.3282 3.25446 25.1448 3.82559 23.8172C4.52029 22.2022 3.23336 20.4341 1.48532 20.5963C0.0456895 20.7279 -0.575169 18.8126 0.665543 18.0747C2.17449 17.1781 2.1775 14.992 0.666045 14.0934C-0.575671 13.355 0.0461917 11.4402 1.48532 11.5713C3.23387 11.733 4.52029 9.9654 3.82559 8.35047C3.25496 7.02336 4.88497 5.8384 5.97047 6.79179C7.29255 7.95163 9.37062 7.27401 9.7574 5.56163C10.0754 4.15314 12.0901 4.15164 12.4086 5.56163C12.7959 7.27703 14.876 7.95012 16.1955 6.79179C17.2805 5.83941 18.9115 7.02286 18.3404 8.35047C17.6467 9.96389 18.9306 11.7335 20.6807 11.5713C22.1188 11.4392 22.7427 13.3545 21.5005 14.0934C19.9885 14.992 19.991 17.1776 21.5005 18.0747ZM16.2272 23.1637C16.0961 21.1358 17.4604 19.2843 19.4063 18.788C18.1139 17.2319 18.1169 14.9328 19.4063 13.3796C17.4408 12.8783 16.0971 11.0127 16.2272 9.00398C14.3465 9.75192 12.1615 9.03813 11.0835 7.33278C9.99951 9.04717 7.80943 9.7479 5.93932 9.00398C6.06992 11.0238 4.71519 12.8813 2.76019 13.3796C4.05816 14.9433 4.04309 17.2429 2.76019 18.788C4.72573 19.2893 6.06942 21.1549 5.93932 23.1637C7.82551 22.4132 10.0086 23.135 11.0835 24.8354C12.1695 23.1175 14.3611 22.4212 16.2272 23.1637Z" fill="#0036A3"/>
<path fill-rule="evenodd" clip-rule="evenodd" d="M5.76605 16.084C5.76605 13.152 8.15103 10.7665 11.083 10.7665C14.015 10.7665 16.4005 13.152 16.4005 16.084C16.4005 19.016 14.015 21.4015 11.083 21.4015C8.15103 21.4015 5.76605 19.016 5.76605 16.084ZM7.69493 16.084C7.69493 17.9521 9.21493 19.4721 11.083 19.4721C12.9516 19.4721 14.4716 17.9521 14.4716 16.084C14.4716 14.2154 12.9516 12.6954 11.083 12.6954C9.21493 12.6954 7.69493 14.2154 7.69493 16.084Z" fill="#0036A3"/>
</svg>
