<svg width="62" height="54" viewBox="0 0 62 54" fill="none" xmlns="http://www.w3.org/2000/svg">
<path d="M17.9928 0.560717C17.388 -0.0440833 16.4178 -0.0440833 15.813 0.560717L6.0732 10.2375L2.6334 6.77252C2.0286 6.16772 1.0584 6.16772 0.4536 6.77252C-0.1512 7.37732 -0.1512 8.34752 0.4536 8.95232L4.9896 13.5135C5.292 13.8159 5.6826 13.9671 6.0858 13.9671C6.4764 13.9671 6.867 13.8159 7.1694 13.5135L18.0054 2.74052C18.585 2.13572 18.5976 1.16552 17.9928 0.560717Z" fill="#0036A3"/>
<path fill-rule="evenodd" clip-rule="evenodd" d="M2.29321 26.8947C2.29321 23.0769 5.40541 19.9647 9.22321 19.9647C13.041 19.9647 16.1406 23.0769 16.1532 26.8947C16.1532 30.7125 13.041 33.8247 9.22321 33.8247C5.40541 33.8247 2.29321 30.7125 2.29321 26.8947ZM5.38021 26.8947C5.38021 29.0115 7.10641 30.7377 9.22321 30.7377C11.34 30.7377 13.0662 29.0115 13.0662 26.8947C13.0662 24.7779 11.34 23.0517 9.22321 23.0517C7.10641 23.0517 5.38021 24.7779 5.38021 26.8947Z" fill="#0036A3"/>
<path fill-rule="evenodd" clip-rule="evenodd" d="M2.29321 46.7649C2.29321 42.9471 5.40541 39.8349 9.22321 39.8349C13.041 39.8349 16.1406 42.9345 16.1532 46.7649C16.1532 50.5827 13.041 53.6949 9.22321 53.6949C5.40541 53.6949 2.29321 50.5827 2.29321 46.7649ZM5.38021 46.7523C5.38021 48.8691 7.10641 50.5953 9.22321 50.5953C11.34 50.5953 13.0536 48.8817 13.0662 46.7523C13.0662 44.6355 11.34 42.9093 9.22321 42.9093C7.10641 42.9093 5.38021 44.6355 5.38021 46.7523Z" fill="#0036A3"/>
<path d="M59.5476 22.3965H23.814C22.9572 22.3965 22.2642 23.0895 22.2642 23.9463C22.2642 24.8031 22.9572 25.4961 23.814 25.4961H59.5476C60.4044 25.4961 61.0974 24.8031 61.0974 23.9463C61.0974 23.0895 60.4044 22.3965 59.5476 22.3965Z" fill="#0036A3"/>
<path d="M59.5476 28.3059H23.814C22.9572 28.3059 22.2642 28.9989 22.2642 29.8557C22.2642 30.7125 22.9572 31.4055 23.814 31.4055H59.5476C60.4044 31.4055 61.0974 30.7125 61.0974 29.8557C61.0974 28.9989 60.4044 28.3059 59.5476 28.3059Z" fill="#0036A3"/>
<path d="M23.814 45.3411H59.5476C60.4044 45.3411 61.0974 44.6481 61.0974 43.7913C61.0974 42.9345 60.4044 42.2415 59.5476 42.2415H23.814C22.9572 42.2415 22.2642 42.9345 22.2642 43.7913C22.2642 44.6481 22.9572 45.3411 23.814 45.3411Z" fill="#0036A3"/>
<path d="M59.5476 51.2631C60.4044 51.2631 61.0974 50.5701 61.0974 49.7133C61.0974 48.8565 60.4044 48.1635 59.5476 48.1635H23.814C22.9572 48.1635 22.2642 48.8565 22.2642 49.7133C22.2642 50.5701 22.9572 51.2631 23.814 51.2631H59.5476Z" fill="#0036A3"/>
<path d="M22.2769 4.07611C22.2769 4.93291 22.9699 5.62591 23.8267 5.62591H59.5603C60.4171 5.62591 61.1101 4.93291 61.1101 4.07611C61.1101 3.21931 60.4171 2.52631 59.5603 2.52631H23.8141C22.9573 2.52631 22.2769 3.21931 22.2769 4.07611Z" fill="#0036A3"/>
<path d="M59.5476 8.4483H23.814C22.9572 8.4483 22.2642 9.1413 22.2642 9.9981C22.2642 10.8549 22.9572 11.5479 23.814 11.5479H59.5476C60.4044 11.5479 61.0974 10.8549 61.0974 9.9981C61.0974 9.1413 60.4044 8.4483 59.5476 8.4483Z" fill="#0036A3"/>
</svg>
